<svg width="1440" height="947" viewBox="0 0 1440 947" fill="none" xmlns="http://www.w3.org/2000/svg">
<g opacity="0.7">
<path d="M-1186 0C-1046.38 95.3113 -900.403 182.613 -743.979 246.735C-693.265 267.526 -641.15 285.941 -586.962 294.179C-476.467 310.978 -364.418 284.743 -252.704 281.223C-110.824 276.747 31.8497 310.393 157.428 376.393C251.918 426.057 358.227 498.094 465.114 516.173C562.216 532.595 666.673 443.24 752.663 408.376C840.738 372.671 939.246 365.065 1032.26 383.433C1080.99 393.057 1128.39 409.803 1172.09 433.454C1213.88 456.076 1250.28 498.175 1299.83 465.088C1316.2 454.151 1327.52 437.297 1341.6 423.52C1390.51 375.646 1476.04 371.903 1528.94 415.329" stroke="#7B61FF" stroke-opacity="0.5" stroke-width="0.552088" stroke-miterlimit="10"/>
<path d="M-1179.84 2.98828C-1043.39 99.5784 -898.923 187.796 -743.361 251.682C-691.562 272.991 -638.344 290.847 -583.207 300.041C-516.676 311.046 -449.451 306.967 -382.012 301.165C-335.975 297.208 -289.837 292.442 -243.746 291.11C-152.696 288.485 -61.3219 299.846 25.7914 323.773C76.7281 337.766 126.197 356.066 173.345 378.493C206.466 394.168 240.906 412.327 276.228 430.008C325.906 454.803 377.347 478.63 429.617 493.888C448.381 499.387 467.247 503.782 486.133 506.669C564.207 518.555 646.912 468.217 721.304 431.186C741.247 421.211 760.59 412.192 779.106 405.583C855.208 378.169 938.203 371.291 1018.53 383.231C1032.36 385.284 1046.12 387.895 1059.76 391.058C1108.41 402.332 1155.77 420.545 1199.85 445.017C1225.96 459.515 1250.18 481.093 1276.82 487.911C1293.22 492.111 1310.46 490.637 1329.64 478.643C1346.4 468.164 1358.36 451.97 1372.96 438.664C1423.63 392.404 1509.85 388.326 1564.27 431.193" stroke="#7B61FF" stroke-opacity="0.5" stroke-width="0.552088" stroke-miterlimit="10"/>
<path d="M-1173.68 5.96948C-1040.41 103.845 -897.443 192.971 -742.735 256.622C-689.846 278.456 -635.531 295.753 -579.446 305.89C-512.059 317.91 -443.832 314.976 -375.329 309.982C-328.551 306.576 -281.64 302.208 -234.775 300.983C-142.203 298.547 -49.3082 308.918 39.2521 330.692C91.0301 343.419 141.307 360.077 189.276 380.579C223.049 394.868 258.062 411.478 293.902 427.578C344.36 450.125 396.509 471.636 449.713 485.494C468.781 490.502 487.956 494.52 507.179 497.158C586.788 507.988 671.101 460.08 746.846 426.03C767.105 416.836 786.772 408.679 805.57 402.796C882.709 378.66 965.898 374.683 1046.12 389.436C1059.92 391.967 1073.65 395.063 1087.28 398.684C1135.85 411.606 1183.17 431.286 1227.63 456.587C1253.97 471.582 1278.6 493.268 1305.74 500.423C1322.46 504.831 1339.99 503.579 1359.47 492.205C1376.63 482.183 1389.22 466.656 1404.34 453.814C1456.76 409.17 1543.67 404.755 1599.6 447.056" stroke="#7B61FF" stroke-opacity="0.5" stroke-width="0.552088" stroke-miterlimit="10"/>
<path d="M-1167.53 8.9519C-1037.43 108.106 -895.962 198.154 -742.122 261.563C-688.143 283.915 -632.731 300.654 -575.696 311.746C-507.455 324.79 -438.225 322.993 -368.658 318.806C-321.141 315.959 -273.462 311.988 -225.816 310.858C-131.73 308.616 -37.3076 317.992 52.6931 337.605C105.319 349.074 156.35 364.217 205.194 382.659C239.587 395.649 275.211 410.618 311.556 425.142C362.803 445.442 415.644 464.637 469.784 477.089C489.148 481.605 508.646 485.246 528.192 487.642C609.342 497.415 695.338 452.139 772.362 420.862C792.958 412.496 812.914 405.119 832.008 399.99C910.129 379.004 993.575 378.055 1073.67 395.629C1087.46 398.644 1101.16 402.211 1114.76 406.297C1163.25 420.868 1210.53 442.016 1255.37 468.144C1281.94 483.638 1306.98 505.431 1334.62 512.922C1351.67 517.546 1369.49 516.523 1389.27 505.747C1406.82 496.19 1420.03 481.316 1435.68 468.938C1489.86 425.91 1577.46 421.151 1634.91 462.901" stroke="#7B61FF" stroke-opacity="0.5" stroke-width="0.552088" stroke-miterlimit="10"/>
<path d="M-1161.37 11.9414C-1034.45 112.375 -894.48 203.338 -741.502 266.518C-686.433 289.395 -629.95 305.683 -571.94 317.609C-502.871 331.804 -432.618 331.017 -361.981 327.645C-313.73 325.349 -265.276 321.782 -216.857 320.753C-121.25 318.706 -25.3061 327.093 66.1417 344.545C119.609 354.749 171.448 368.29 221.112 384.767C256.158 396.397 292.355 409.784 329.218 422.741C381.245 440.792 434.793 457.672 489.869 468.717C509.536 472.742 529.35 476.006 549.219 478.153C631.904 486.869 719.522 444.083 797.892 415.721C818.81 408.149 839.063 401.586 858.453 397.212C937.544 379.376 1021.25 381.455 1101.24 401.842C1115.01 405.335 1128.68 409.38 1142.25 413.93C1190.67 430.151 1237.91 452.766 1283.12 479.715C1309.94 495.706 1335.37 517.601 1363.52 525.435C1380.89 530.275 1399.01 529.48 1419.08 519.311C1437.04 510.218 1450.87 496.003 1467.04 484.09C1522.97 442.676 1611.27 437.581 1670.23 478.766" stroke="#7B61FF" stroke-opacity="0.5" stroke-width="0.552088" stroke-miterlimit="10"/>
<path d="M-1155.22 14.9224C-1031.47 116.641 -893.006 208.52 -740.883 271.457C-684.723 294.853 -627.151 310.609 -568.184 323.458C-498.268 338.696 -427.005 339.025 -355.304 336.461C-306.313 334.724 -257.092 331.554 -207.892 330.619C-110.771 328.768 -13.3057 336.158 79.5891 351.457C133.904 360.402 186.544 372.328 237.03 386.846C272.722 397.11 309.47 409.016 346.879 420.303C399.653 436.235 453.955 450.537 509.946 460.31C529.922 463.796 550.04 466.731 570.245 468.629C654.471 476.288 743.697 435.986 823.42 410.551C844.655 403.773 865.217 398.025 884.904 394.404C964.957 379.698 1048.93 384.827 1128.82 408.034C1142.56 412.011 1156.2 416.528 1169.76 421.542C1218.09 439.418 1265.3 463.5 1310.89 491.27C1337.94 507.76 1363.79 529.762 1392.43 537.933C1410.13 542.988 1428.54 542.423 1448.9 532.858C1467.26 524.23 1481.71 510.675 1498.41 499.226C1556.09 459.428 1645.08 453.997 1705.56 494.622" stroke="#7B61FF" stroke-opacity="0.5" stroke-width="0.552088" stroke-miterlimit="10"/>
<path d="M-1149.06 17.9104C-1028.49 120.908 -891.525 213.702 -740.263 276.404C-683.02 300.324 -624.35 315.535 -564.428 329.32C-493.663 345.601 -421.391 347.041 -348.627 345.291C-298.895 344.107 -248.901 341.34 -198.933 340.506C-100.29 338.85 -1.30452 345.251 93.0374 358.382C148.194 366.062 201.648 376.38 252.948 388.939C289.293 397.837 326.614 408.181 364.534 417.88C418.095 431.583 473.097 443.53 530.024 451.917C550.296 454.905 570.737 457.476 591.265 459.118C677.025 465.721 767.861 427.902 848.944 405.388C870.495 399.405 891.353 394.465 911.349 391.611C992.358 380.034 1076.61 388.212 1156.39 414.232C1170.1 418.688 1183.73 423.682 1197.26 429.154C1245.51 448.679 1292.67 474.228 1338.65 502.826C1365.94 519.814 1392.18 541.924 1421.33 550.432C1439.35 555.702 1458.08 555.372 1478.72 546.407C1497.49 538.249 1512.55 525.34 1529.77 514.356C1589.21 476.173 1678.89 470.399 1740.88 510.472" stroke="#7B61FF" stroke-opacity="0.5" stroke-width="0.552088" stroke-miterlimit="10"/>
<path d="M-1142.9 20.8916C-1025.5 125.168 -890.045 218.877 -739.637 281.344C-681.304 305.782 -621.543 320.448 -560.666 335.168C-489.053 352.486 -415.771 355.05 -341.944 354.108C-291.472 353.482 -240.71 351.113 -189.962 350.372C-89.8046 348.912 10.7091 354.316 106.491 365.294C162.489 371.715 216.758 380.418 268.879 391.018C305.883 398.55 343.776 407.333 382.208 415.45C436.557 426.919 492.252 436.517 550.114 443.516C570.683 446.007 591.446 448.208 612.304 449.601C699.606 455.147 792.037 419.805 874.479 400.219C896.346 395.023 917.507 390.897 937.806 388.804C1019.76 380.343 1104.31 391.583 1183.97 420.424C1197.67 425.357 1211.26 430.836 1224.76 436.766C1272.93 457.94 1320.07 484.956 1366.42 514.376C1393.94 531.862 1420.6 554.079 1450.25 562.923C1468.58 568.402 1487.62 568.321 1508.54 559.942C1527.73 552.255 1543.4 539.999 1561.14 529.479C1622.33 492.905 1712.71 486.801 1776.22 526.309" stroke="#7B61FF" stroke-opacity="0.5" stroke-width="0.552088" stroke-miterlimit="10"/>
<path d="M-1136.75 23.8726C-1022.53 129.435 -888.57 224.059 -739.024 286.29C-679.6 311.254 -618.75 325.368 -556.916 341.03C-484.455 359.377 -410.164 363.072 -335.273 362.944C-284.067 362.87 -232.532 360.905 -181.003 360.265C-79.3245 359 22.7102 363.409 119.94 372.232C176.786 377.388 231.868 384.469 284.797 393.124C322.461 399.283 360.92 406.511 399.862 413.04C454.999 422.281 511.387 429.53 570.192 435.136C591.063 437.128 612.137 438.959 633.324 440.103C722.161 444.593 816.186 411.721 900.001 395.069C922.185 390.661 943.642 387.349 964.245 386.017C1047.15 380.659 1131.98 394.975 1211.52 426.635C1225.19 432.054 1238.76 438.003 1252.25 444.397C1300.34 467.221 1347.44 495.704 1394.17 525.951C1421.93 543.935 1448.99 566.254 1479.14 575.441C1497.8 581.135 1517.16 581.304 1538.35 573.51C1557.95 566.301 1574.23 554.684 1592.49 544.635C1655.44 509.677 1746.51 503.236 1811.52 542.186" stroke="#7B61FF" stroke-opacity="0.5" stroke-width="0.552088" stroke-miterlimit="10"/>
<path d="M-1130.59 26.8608C-1019.55 133.702 -887.089 229.242 -738.398 291.237C-677.884 316.719 -615.943 330.288 -553.147 346.885C-479.838 366.262 -404.537 371.088 -328.583 371.768C-276.637 372.253 -224.327 370.678 -172.031 370.139C-68.8382 369.069 34.7244 372.488 133.394 379.145C191.081 383.042 246.979 388.5 300.722 395.21C339.045 399.996 378.076 405.67 417.53 410.61C473.454 417.617 530.536 422.523 590.283 426.736C611.45 428.231 632.847 429.691 654.364 430.586C744.742 434.019 840.363 403.61 925.544 389.907C948.038 386.286 969.804 383.782 990.709 383.217C1074.55 380.955 1159.67 398.354 1239.11 432.828C1252.76 438.724 1266.3 445.151 1279.77 452.01C1327.77 476.482 1374.83 506.44 1421.95 537.508C1449.93 555.99 1477.41 578.416 1508.06 587.94C1527.05 593.849 1546.72 594.267 1568.18 587.058C1588.21 580.328 1605.09 569.357 1623.88 559.766C1688.57 526.423 1780.34 519.638 1846.87 558.029" stroke="#7B61FF" stroke-opacity="0.5" stroke-width="0.552088" stroke-miterlimit="10"/>
<path d="M-1124.44 29.843C-1016.57 137.963 -885.616 234.425 -737.787 296.178C-676.182 322.184 -613.151 335.201 -549.399 352.741C-475.236 373.148 -398.938 379.105 -321.907 380.592C-269.221 381.629 -216.144 380.458 -163.067 380.02C-58.3531 379.145 46.7307 381.568 146.847 386.071C205.383 388.703 262.094 392.532 316.645 397.304C355.628 400.71 395.231 404.836 435.197 408.194C491.915 412.959 549.683 415.531 610.366 418.357C631.829 419.353 653.549 420.444 675.389 421.09C767.302 423.466 864.511 395.514 951.072 384.758C973.882 381.925 995.944 380.229 1017.16 380.431C1101.94 381.252 1187.35 401.746 1266.69 439.04C1280.32 445.421 1293.83 452.32 1307.27 459.643C1355.19 485.764 1402.22 517.189 1449.7 549.078C1477.92 568.058 1505.81 590.592 1536.96 600.452C1556.27 606.577 1576.26 607.25 1597.99 600.621C1618.44 594.375 1635.94 584.077 1655.23 574.917C1721.75 543.33 1814.14 536.068 1882.19 573.9" stroke="#7B61FF" stroke-opacity="0.5" stroke-width="0.552088" stroke-miterlimit="10"/>
<path d="M-1118.29 32.8242C-1013.59 142.229 -884.13 239.6 -737.169 301.117C-674.474 327.643 -610.345 340.108 -545.645 358.59C-470.633 380.02 -393.326 387.114 -315.232 389.409C-261.805 391.004 -207.961 390.23 -154.103 389.887C-47.8749 389.207 58.7368 390.634 160.294 392.983C219.671 394.356 277.21 396.55 332.562 399.384C372.205 401.409 412.379 403.981 452.85 405.757C510.356 408.281 568.817 408.524 630.442 409.951C652.208 410.455 674.237 411.169 696.414 411.566C789.868 412.885 888.665 387.383 976.6 379.582C999.719 377.529 1022.08 376.641 1043.61 377.624C1129.32 381.514 1215.04 405.118 1294.26 445.225C1307.86 452.084 1321.35 459.467 1334.77 467.248C1382.61 495.018 1429.61 527.91 1477.47 560.627C1505.92 580.106 1534.22 602.74 1565.87 612.944C1585.49 619.284 1605.81 620.22 1627.81 614.155C1648.69 608.401 1666.78 598.736 1686.6 590.033C1754.86 560.062 1847.95 552.463 1917.51 589.737" stroke="#7B61FF" stroke-opacity="0.5" stroke-width="0.552088" stroke-miterlimit="10"/>
<path d="M-1112.12 35.8137C-1010.6 146.498 -882.647 244.791 -736.541 306.072C-672.762 333.122 -607.537 345.029 -541.88 364.46C-466.021 386.913 -387.704 395.138 -308.546 398.247C-254.386 400.394 -199.767 400.024 -145.136 399.782C-37.3865 399.297 70.7463 399.735 173.75 399.923C233.975 400.031 292.329 400.596 348.495 401.491C388.798 402.137 429.544 403.154 470.526 403.349C528.826 403.632 587.974 401.545 650.534 401.572C672.597 401.579 694.949 401.922 717.449 402.077C812.437 402.339 912.823 379.28 1002.13 374.448C1025.56 373.176 1048.23 373.095 1070.06 374.852C1156.7 381.804 1242.72 408.525 1321.83 451.452C1335.41 458.795 1348.87 466.65 1362.27 474.895C1410.03 504.321 1456.99 538.673 1505.23 572.218C1533.92 592.195 1562.62 614.937 1594.78 625.477C1614.72 632.026 1635.37 633.231 1657.63 627.739C1678.94 622.482 1697.62 613.443 1717.97 605.205C1787.99 576.856 1881.77 568.907 1952.85 605.622" stroke="#7B61FF" stroke-opacity="0.5" stroke-width="0.552088" stroke-miterlimit="10"/>
<path d="M-1105.97 38.7947C-1007.63 150.757 -881.052 249.676 -735.928 311.012C-671.006 338.452 -604.737 349.928 -538.131 370.308C-461.417 393.777 -382.097 403.146 -301.876 407.07C-246.975 409.776 -191.583 409.803 -136.177 409.655C-26.9137 409.365 82.7399 408.807 187.191 406.835C248.257 405.684 307.432 404.6 364.406 403.57C405.368 402.83 446.687 402.292 488.174 400.919C547.268 398.96 607.096 394.545 670.605 393.172C692.964 392.687 715.639 392.653 738.469 392.559C834.998 391.765 936.966 371.143 1027.65 369.278C1051.39 368.787 1074.36 369.514 1096.5 372.044C1184.08 382.053 1270.4 411.896 1349.39 457.637C1362.95 465.458 1376.39 473.79 1389.76 482.5C1437.44 513.574 1484.36 549.395 1532.98 583.761C1561.91 604.235 1591.02 627.085 1623.68 637.962C1643.94 644.726 1664.91 646.2 1687.43 641.273C1709.17 636.515 1728.45 628.102 1749.31 620.328C1821.08 593.601 1915.56 585.309 1988.15 621.465" stroke="#7B61FF" stroke-opacity="0.5" stroke-width="0.552088" stroke-miterlimit="10"/>
<path d="M-1099.81 41.7771C-1004.64 155.025 -879.571 254.853 -735.302 315.953C-669.289 343.912 -601.93 354.828 -534.369 376.158C-456.8 400.643 -376.477 411.156 -295.193 415.888C-239.551 419.146 -183.392 419.576 -127.205 419.529C-16.4208 419.428 94.7542 417.887 200.652 413.754C262.567 411.338 322.563 408.612 380.337 405.658C421.966 403.524 463.85 401.444 505.848 398.49C565.737 394.283 626.251 387.552 690.702 384.773C713.364 383.797 736.349 383.393 759.509 383.043C857.572 381.192 961.129 363.006 1053.2 364.11C1077.25 364.399 1100.52 365.934 1122.96 369.239C1211.49 382.289 1298.09 415.269 1376.98 463.83C1390.52 472.129 1403.92 480.939 1417.27 490.113C1464.88 522.837 1511.76 560.13 1560.76 595.318C1589.92 616.283 1619.44 639.241 1652.6 650.461C1673.19 657.441 1694.49 659.191 1717.26 654.823C1739.44 650.569 1759.3 642.768 1780.69 635.459C1854.21 610.347 1949.39 601.719 2023.5 637.31" stroke="#7B61FF" stroke-opacity="0.5" stroke-width="0.552088" stroke-miterlimit="10"/>
<path d="M-1093.66 44.7642C-1001.66 159.291 -878.099 260.041 -734.692 320.899C-667.588 349.375 -599.132 359.734 -530.622 382.019C-452.198 407.521 -370.873 419.178 -288.525 424.717C-232.143 428.534 -175.216 429.361 -118.256 429.408C-5.95658 429.503 106.746 426.965 214.091 420.679C276.847 417.004 337.664 412.629 396.246 407.75C438.534 404.23 480.991 400.595 523.501 396.065C584.177 389.604 645.384 380.565 710.771 376.378C733.729 374.911 757.037 374.131 780.52 373.531C880.125 370.624 985.262 354.861 1078.71 358.946C1103.07 360.01 1126.64 362.352 1149.4 366.444C1238.86 382.53 1325.77 418.653 1404.54 470.034C1418.06 478.818 1431.44 488.106 1444.76 497.737C1492.28 532.11 1539.12 570.871 1588.51 606.886C1617.91 628.35 1647.82 651.416 1681.49 662.972C1702.4 670.167 1724.03 672.2 1747.07 668.383C1769.68 664.634 1790.13 657.453 1812.05 650.608C1887.32 627.112 1983.19 618.14 2058.81 653.179" stroke="#7B61FF" stroke-opacity="0.5" stroke-width="0.552088" stroke-miterlimit="10"/>
<path d="M-1087.51 47.7463C-998.683 163.552 -876.74 265.507 -734.066 325.839C-665.926 354.976 -596.319 364.634 -526.859 387.868C-447.58 414.386 -365.259 427.188 -281.841 433.535C-224.726 437.903 -167.025 439.128 -109.284 439.283C4.53628 439.572 118.76 436.039 227.546 427.592C291.149 422.651 352.781 416.628 412.178 409.83C455.125 404.91 498.153 399.734 541.168 393.636C602.638 384.927 664.532 373.572 730.862 367.979C754.116 366.021 777.746 364.863 801.559 364.015C902.699 360.051 1009.42 346.711 1104.25 353.784C1128.93 355.629 1152.81 358.772 1175.86 363.645C1266.26 382.76 1353.46 422.032 1432.12 476.227C1445.61 485.488 1458.97 495.254 1472.27 505.35C1519.71 541.372 1566.52 581.6 1616.28 618.436C1645.92 640.398 1676.25 663.572 1710.4 675.464C1731.63 682.868 1753.6 685.19 1776.89 681.919C1799.93 678.682 1820.96 672.065 1843.42 665.732C1920.4 643.696 2017.01 634.543 2094.14 669.017" stroke="#7B61FF" stroke-opacity="0.5" stroke-width="0.552088" stroke-miterlimit="10"/>
<path d="M-1081.35 50.7288C-995.701 167.82 -875.257 270.69 -733.445 330.787C-664.222 360.442 -593.518 369.542 -523.103 393.731C-442.969 421.259 -359.645 435.205 -275.163 442.373C-217.308 447.3 -158.833 448.922 -100.318 449.171C15.0168 449.655 130.769 445.132 241.001 434.525C305.446 428.326 367.899 420.647 428.103 411.931C471.71 405.617 515.304 398.887 558.837 391.221C621.095 380.257 683.682 366.594 750.947 359.594C774.497 357.144 798.444 355.609 822.586 354.512C925.267 349.491 1033.58 338.561 1129.77 348.63C1154.77 351.248 1178.94 355.192 1202.3 360.852C1293.66 382.989 1381.13 425.419 1459.69 482.433C1473.16 492.179 1486.49 502.416 1499.77 512.97C1547.13 550.641 1593.9 592.336 1644.04 630.001C1673.91 652.46 1704.64 675.735 1739.31 687.971C1760.86 695.59 1783.15 698.201 1806.7 695.475C1830.17 692.756 1851.79 686.739 1874.78 680.87C1953.5 660.449 2050.81 650.959 2129.47 684.875" stroke="#7B61FF" stroke-opacity="0.5" stroke-width="0.552088" stroke-miterlimit="10"/>
<path d="M-1075.19 53.717C-992.726 172.087 -873.784 275.872 -732.833 335.734C-662.519 365.914 -590.717 374.441 -519.354 399.587C-438.365 428.124 -354.039 443.221 -268.493 451.196C-209.897 456.675 -150.655 458.701 -91.3659 459.051C25.4896 459.731 142.762 454.212 254.435 441.451C319.728 433.986 382.988 424.651 444.007 414.024C488.274 406.31 532.44 398.039 576.478 388.798C639.529 375.572 702.803 359.614 771.01 351.207C794.863 348.266 819.127 346.355 843.599 345.009C947.822 338.931 1057.72 330.41 1155.29 343.474C1180.59 346.859 1205.08 351.611 1228.74 358.059C1321.04 383.205 1408.8 428.804 1487.25 488.632C1500.69 498.856 1513.99 509.571 1527.25 520.589C1574.53 559.908 1621.27 603.078 1671.78 641.557C1701.88 664.515 1733.03 687.897 1768.19 700.469C1790.06 708.304 1812.68 711.211 1836.5 709.024C1860.4 706.83 1882.61 701.411 1906.12 696.007C1986.61 677.195 2084.6 667.368 2164.77 700.732" stroke="#7B61FF" stroke-opacity="0.5" stroke-width="0.552088" stroke-miterlimit="10"/>
<path d="M-1069.04 56.698C-989.744 176.347 -872.303 281.047 -732.207 340.673C-660.802 371.371 -587.897 379.334 -515.585 405.441C-433.741 434.989 -348.412 451.236 -261.803 460.02C-202.467 466.057 -142.457 468.48 -82.3874 468.924C35.9825 469.799 154.783 463.291 267.903 448.362C334.037 439.639 398.119 428.642 459.945 416.103C504.865 406.99 549.61 397.17 594.159 386.367C657.998 370.887 721.965 352.627 791.108 342.807C815.257 339.374 839.844 337.086 864.639 335.491C970.396 328.357 1081.89 322.245 1180.83 338.311C1206.45 342.47 1231.23 348.023 1255.21 355.259C1348.46 383.412 1436.51 432.182 1514.84 494.83C1528.26 505.538 1541.54 516.731 1554.76 528.207C1601.96 569.182 1648.67 613.813 1699.55 653.119C1729.9 676.575 1761.44 700.065 1797.11 712.981C1819.3 721.03 1842.26 724.234 1866.33 722.585C1890.67 720.916 1913.46 716.09 1937.5 711.157C2019.73 693.96 2118.43 683.797 2200.11 716.595" stroke="#7B61FF" stroke-opacity="0.5" stroke-width="0.552088" stroke-miterlimit="10"/>
<path d="M-1062.88 59.679C-986.762 180.614 -870.822 286.229 -731.594 345.613C-659.099 376.836 -585.097 384.226 -511.835 411.29C-429.13 441.846 -342.805 459.245 -255.133 468.836C-195.056 475.425 -134.279 478.252 -73.4351 478.797C46.4558 479.867 166.777 472.363 281.338 455.281C348.32 445.292 413.209 432.639 475.85 418.189C521.429 407.675 566.739 396.308 611.807 383.937C676.434 366.195 741.094 345.64 811.179 334.407C835.631 330.489 860.527 327.817 885.659 325.973C992.957 317.782 1106.05 314.074 1206.36 333.141C1232.28 338.068 1257.37 344.428 1281.64 352.458C1375.86 383.62 1464.18 435.56 1542.4 501.021C1555.8 512.208 1569.04 523.878 1582.26 535.818C1629.38 578.443 1676.04 624.541 1727.31 664.675C1757.88 688.629 1789.85 712.219 1826.01 725.479C1848.53 733.744 1871.81 737.25 1896.14 736.126C1920.91 734.989 1944.3 730.755 1968.86 726.279C2052.85 710.698 2152.23 700.199 2235.43 732.438" stroke="#7B61FF" stroke-opacity="0.5" stroke-width="0.552088" stroke-miterlimit="10"/>
<path d="M-1056.73 62.6685C-983.782 184.882 -869.343 291.413 -730.97 350.568C-657.385 382.309 -582.286 389.127 -508.075 417.16C-424.515 448.719 -337.187 467.276 -248.451 477.681C-187.641 484.829 -126.084 488.053 -64.4656 488.692C56.9398 489.958 178.789 481.457 294.797 462.221C362.62 450.974 428.324 436.652 491.786 420.296C538.018 408.383 583.9 395.467 629.479 381.528C694.887 361.525 760.254 338.675 831.274 326.028C856.022 321.62 881.242 318.571 906.697 316.478C1015.53 307.23 1130.22 305.917 1231.9 327.994C1258.14 333.694 1283.54 340.856 1308.11 349.673C1403.29 383.83 1491.87 438.953 1569.98 507.235C1583.36 518.906 1596.58 531.048 1609.77 543.452C1656.81 587.726 1703.44 635.29 1755.09 676.246C1785.89 700.698 1818.26 724.396 1854.93 737.992C1877.76 746.466 1901.38 750.282 1925.98 749.69C1951.17 749.084 1975.16 745.436 2000.23 741.431C2085.98 727.465 2186.06 716.629 2270.77 748.303" stroke="#7B61FF" stroke-opacity="0.5" stroke-width="0.552088" stroke-miterlimit="10"/>
<path d="M-1050.57 65.6499C-980.8 189.142 -867.862 296.595 -730.35 355.508C-655.682 387.774 -579.478 394.02 -504.319 423.009C-419.897 455.571 -331.58 475.285 -241.774 486.498C-180.223 494.198 -117.899 497.819 -55.4998 498.566C67.4266 500.026 190.791 490.536 308.245 469.133C376.917 456.621 443.428 440.636 507.704 422.376C554.589 409.056 601.05 394.599 647.141 379.098C713.336 356.834 779.396 331.695 851.352 317.628C876.403 312.735 901.939 309.309 927.723 306.967C1038.1 296.663 1154.39 297.74 1257.42 322.831C1283.98 329.299 1309.68 337.261 1334.55 346.873C1430.7 384.025 1519.55 442.332 1597.55 513.434C1610.9 525.582 1624.1 538.202 1637.26 551.071C1684.22 596.993 1730.81 646.025 1782.84 687.809C1813.88 712.759 1846.66 736.565 1883.82 750.497C1906.98 759.186 1930.92 763.312 1955.78 763.245C1981.4 763.177 2005.98 760.115 2031.58 756.568C2119.08 744.217 2219.86 733.038 2306.08 764.16" stroke="#7B61FF" stroke-opacity="0.5" stroke-width="0.552088" stroke-miterlimit="10"/>
<path d="M-1044.42 68.6318C-977.824 193.41 -866.386 301.771 -729.73 360.448C-653.971 393.233 -576.61 398.759 -500.562 428.858C-415.218 462.261 -325.965 483.288 -235.096 495.315C-172.805 503.573 -109.713 507.592 -46.5401 508.433C77.9008 510.089 202.792 499.602 321.694 476.046C391.207 462.275 458.526 444.621 523.623 424.456C571.161 409.729 618.194 393.731 664.796 376.662C731.772 352.136 798.566 324.85 871.43 309.222C896.791 303.885 922.63 300.035 948.744 297.444C1060.65 286.082 1178.55 289.555 1282.94 317.662C1309.82 324.898 1335.82 333.667 1361 344.066C1458.12 384.214 1547.23 445.704 1625.12 519.619C1638.45 532.246 1651.61 545.35 1664.76 558.677C1711.64 606.248 1758.19 656.754 1810.6 699.358C1841.88 724.807 1875.06 748.714 1912.73 762.989C1936.21 771.894 1960.47 776.329 1985.6 776.787C2011.65 777.258 2036.82 774.781 2062.95 771.698C2152.2 760.963 2253.67 749.447 2341.41 780.011" stroke="#7B61FF" stroke-opacity="0.5" stroke-width="0.552088" stroke-miterlimit="10"/>
<path d="M-1038.26 71.6201C-974.836 197.677 -864.906 306.954 -729.111 365.395C-652.262 398.705 -573.804 403.672 -496.807 434.72C-410.609 469.14 -320.352 491.31 -228.42 504.146C-165.389 512.956 -101.529 517.378 -37.5758 518.32C88.3861 520.171 214.799 508.695 335.141 482.978C405.502 467.942 473.622 448.625 539.541 426.556C587.731 410.423 635.303 392.795 682.457 374.246C750.166 347.337 817.713 317.864 891.507 300.836C917.164 295.007 943.325 290.78 969.77 287.94C1083.22 275.522 1202.72 281.384 1308.47 312.507C1335.66 320.509 1361.98 330.08 1387.44 341.28C1485.54 384.416 1574.91 449.096 1652.68 525.831C1666 538.942 1679.13 552.518 1692.25 566.309C1739.06 615.529 1785.57 667.503 1838.36 710.928C1869.87 736.875 1903.46 760.889 1941.63 775.501C1965.44 784.621 1990.02 789.366 2015.41 790.342C2041.89 791.358 2067.66 789.454 2094.31 786.842C2185.32 777.722 2287.48 765.863 2376.73 795.868" stroke="#7B61FF" stroke-opacity="0.5" stroke-width="0.552088" stroke-miterlimit="10"/>
<path d="M-1032.11 74.6013C-971.862 201.937 -863.434 312.136 -728.5 370.342C-650.56 404.169 -571.005 408.578 -493.059 440.575C-406.006 476.018 -314.747 499.326 -221.751 512.976C-157.986 522.344 -93.3461 527.164 -28.6186 528.2C98.8645 530.246 226.798 517.774 348.587 489.903C419.79 473.609 488.717 452.616 555.464 428.648C604.301 411.109 652.451 391.947 700.123 371.829C768.62 342.666 836.861 310.884 911.596 292.449C937.556 286.129 964.034 281.525 990.801 278.436C1105.79 264.961 1226.9 273.206 1334 307.35C1361.51 316.12 1388.14 326.492 1413.9 338.486C1512.98 384.61 1602.59 452.481 1680.26 532.03C1693.55 545.619 1706.67 559.672 1719.76 573.927C1766.48 624.797 1812.96 678.238 1866.12 722.491C1897.87 748.935 1931.86 773.058 1970.54 788.006C1994.67 797.341 2019.57 802.403 2045.23 803.897C2072.13 805.465 2098.5 804.133 2125.68 801.979C2218.44 794.474 2321.29 782.278 2412.05 811.725" stroke="#7B61FF" stroke-opacity="0.5" stroke-width="0.552088" stroke-miterlimit="10"/>
<path d="M-1025.95 77.5823C-968.88 206.203 -861.952 317.311 -727.873 375.281C-648.843 409.634 -568.191 413.477 -489.296 446.43C-401.388 482.889 -309.126 507.341 -215.067 521.799C-150.561 531.726 -85.1543 536.942 -19.6527 538.08C109.345 540.321 238.807 526.853 362.036 496.822C434.086 479.262 503.814 456.607 571.382 430.734C620.872 411.788 669.594 391.098 717.778 369.399C787.055 337.987 856.003 303.89 931.668 284.055C957.923 277.244 984.724 272.264 1011.82 268.925C1128.35 254.394 1251.07 265.028 1359.52 302.188C1387.35 311.725 1414.28 322.897 1440.33 335.685C1540.4 384.792 1630.26 455.859 1707.83 538.228C1721.09 552.302 1734.18 566.826 1747.25 581.546C1793.89 634.071 1840.33 688.972 1893.87 734.053C1925.85 760.996 1960.25 785.219 1999.43 800.511C2023.88 810.055 2049.1 815.446 2075.03 817.452C2102.36 819.565 2129.33 818.805 2157.03 817.122C2251.55 811.233 2355.09 798.7 2447.37 827.581" stroke="#7B61FF" stroke-opacity="0.5" stroke-width="0.552088" stroke-miterlimit="10"/>
<path d="M-1019.79 80.5706C-965.898 210.47 -860.471 322.5 -727.253 380.228C-647.133 415.099 -565.384 418.384 -485.54 452.285C-396.778 489.761 -303.513 515.357 -208.383 530.622C-143.137 541.102 -76.9627 546.722 -10.6804 547.96C119.838 550.39 250.821 535.939 375.497 503.747C448.389 484.929 518.878 460.49 587.314 432.834C637.416 412.4 686.751 390.257 735.453 366.982C805.518 333.323 875.159 296.904 951.765 275.669C978.324 268.366 1005.43 263.009 1032.86 259.421C1150.92 243.834 1275.34 256.655 1385.06 297.039C1413.23 307.289 1440.45 319.317 1466.8 332.899C1567.85 384.993 1657.97 459.252 1735.41 544.433C1748.65 558.985 1761.71 573.994 1774.76 589.171C1821.32 643.346 1867.73 699.714 1921.65 745.616C1953.87 773.05 1988.68 797.388 2028.35 813.016C2053.12 822.775 2078.67 828.483 2104.87 831.007C2132.61 833.679 2160.19 833.484 2188.41 832.266C2284.68 827.992 2388.92 815.116 2482.71 843.445" stroke="#7B61FF" stroke-opacity="0.5" stroke-width="0.552088" stroke-miterlimit="10"/>
<path d="M-1013.64 83.553C-962.916 214.731 -858.99 327.677 -726.634 385.169C-645.43 420.565 -562.577 423.291 -481.784 458.142C-392.167 496.634 -297.899 523.368 -201.706 539.447C-135.72 550.485 -68.778 556.502 -1.71496 557.835C130.318 560.46 262.829 545.013 388.952 510.667C462.685 490.583 533.982 464.502 603.239 434.921C653.994 413.094 703.901 389.403 753.114 364.56C823.96 328.653 894.307 289.918 971.85 267.277C998.705 259.476 1026.14 253.748 1053.89 249.912C1173.49 233.267 1299.51 248.512 1410.59 291.877C1439.08 302.908 1466.63 315.676 1493.24 330.1C1595.4 384.974 1685.64 462.631 1762.98 550.633C1776.2 565.669 1789.23 581.149 1802.26 596.784C1848.74 652.608 1895.1 710.45 1949.41 757.174C1981.86 785.105 2017.07 809.551 2057.26 825.516C2082.35 835.49 2108.21 841.521 2134.68 844.55C2162.84 847.774 2191.02 848.144 2219.76 847.39C2317.79 844.731 2422.72 831.519 2518.03 859.289" stroke="#7B61FF" stroke-opacity="0.5" stroke-width="0.552088" stroke-miterlimit="10"/>
<path d="M-1007.48 86.5354C-959.935 218.999 -857.51 332.853 -726.016 390.11C-643.722 426.024 -559.771 428.192 -478.022 463.991C-387.55 503.506 -292.287 531.378 -195.024 548.265C-128.304 559.855 -60.5813 566.269 7.24901 567.709C140.803 570.529 274.835 554.087 402.399 517.58C476.98 496.237 549.084 468.508 619.155 437.002C670.563 413.788 721.049 388.549 770.774 362.125C842.407 323.969 913.448 282.919 991.926 258.871C1019.08 250.579 1046.83 244.475 1074.91 240.389C1196.05 222.688 1323.67 240.362 1436.12 286.702C1464.92 298.507 1492.79 312.083 1519.69 327.294C1622.81 385.217 1713.32 465.997 1790.55 556.819C1803.75 572.333 1816.75 588.291 1829.76 604.391C1876.16 661.863 1922.49 721.173 1977.17 768.724C2009.86 797.154 2045.48 821.7 2086.16 838.008C2111.58 848.198 2137.75 854.552 2164.49 858.092C2193.07 861.875 2221.86 862.81 2251.13 862.521C2350.9 861.471 2456.52 847.929 2553.35 875.134" stroke="#7B61FF" stroke-opacity="0.5" stroke-width="0.552088" stroke-miterlimit="10"/>
<path d="M-1001.33 89.5234C-956.96 223.266 -856.036 338.042 -725.396 395.064C-642.011 431.503 -556.965 433.105 -474.267 469.854C-382.94 510.385 -286.673 539.4 -188.347 557.102C-120.887 569.25 -52.3966 576.062 16.2145 577.596C151.283 580.611 286.836 563.179 415.853 524.512C491.276 501.904 564.194 472.532 635.087 439.102C687.148 414.495 738.205 387.707 788.449 359.708C860.863 319.305 932.61 275.933 1012.02 250.485C1039.48 241.701 1067.54 235.226 1095.95 230.885C1218.63 212.127 1347.86 232.231 1461.66 281.553C1490.78 294.139 1518.95 308.522 1546.16 324.507C1650.25 385.479 1741.02 469.389 1818.14 563.031C1831.32 579.023 1844.29 595.459 1857.27 612.023C1903.59 671.144 1949.89 731.921 2004.95 780.293C2037.87 809.221 2073.9 833.875 2115.08 850.52C2140.82 860.925 2167.29 867.656 2194.33 871.654C2223.32 876.049 2252.72 877.489 2282.51 877.671C2384.04 878.236 2490.36 864.358 2588.7 891.004" stroke="#7B61FF" stroke-opacity="0.5" stroke-width="0.552088" stroke-miterlimit="10"/>
<path d="M-995.169 92.5056C-953.978 227.527 -854.555 343.219 -724.777 400.004C-640.302 436.962 -554.165 438.005 -470.511 475.71C-378.329 517.257 -281.06 547.417 -181.67 565.926C20.7777 603.63 232.568 592.996 429.301 531.432C561.637 490.019 686.293 427.088 806.103 357.279C879.304 314.627 951.745 268.94 1032.09 242.085C1179.81 192.717 1345.37 211.993 1487.18 276.384C1628.99 340.775 1748.53 447.502 1845.69 569.224C1933.88 679.679 2013.08 809.686 2143.97 863.019C2293.67 924.011 2467.61 865.987 2624 906.848" stroke="#7B61FF" stroke-opacity="0.5" stroke-width="0.552088" stroke-miterlimit="10"/>
<path d="M-682.676 946C-684.325 775.347 -623.985 604.754 -515.402 473.098C-484.508 435.642 -448.278 400.226 -402.591 383.797C-270.579 336.333 -129.614 440.091 -18.621 499.004C115.323 570.092 247.753 644.592 387.217 704.582C465.513 738.261 557.472 766.846 633.211 727.755C709.905 688.166 739.089 595.984 770.796 515.709C807.74 422.168 858.616 332.059 933.298 264.7C1007.98 197.34 1108.94 154.817 1208.91 165.781C1287.2 174.369 1358.54 214.093 1423.68 258.36C1594.85 374.677 1740.26 528.665 1846.6 706.21" stroke="#7B61FF" stroke-opacity="0.5" stroke-width="0.552088" stroke-miterlimit="10"/>
<path d="M-686.956 938.622C-688.417 787.797 -635.36 640.183 -541.287 513.581C-532.551 501.823 -523.559 490.26 -514.177 479.013C-483.331 442.069 -447.41 407.104 -402.369 390.547C-272.106 342.605 -133.296 440.938 -22.4574 497.738C75.8084 548.096 173.381 601.267 274.42 649.397C309.472 666.163 344.828 682.31 380.634 697.541C458.304 730.574 549.174 758.775 624.347 721.508C700.462 683.77 730.595 595.156 763.178 518.023C801.151 428.15 852.613 341.542 927.153 276.78C953.106 254.233 982.149 234.58 1013.17 218.985C1071.21 189.788 1136.19 174.779 1200.76 181.604C1278.31 189.801 1349.13 227.916 1413.86 270.164C1544.9 355.635 1660.7 461.729 1756.17 583.943C1784.66 620.409 1811.33 658.302 1836.04 697.521" stroke="#7B61FF" stroke-opacity="0.5" stroke-width="0.552088" stroke-miterlimit="10"/>
<path d="M-691.23 931.252C-692.644 785.455 -636.76 646.018 -540.016 518.966C-531.232 507.436 -522.294 496.021 -512.945 484.943C-482.14 448.517 -446.535 413.996 -402.134 397.304C-273.614 348.878 -136.978 441.793 -26.2874 496.486C70.9486 544.528 167.666 596.293 268.651 643.407C303.448 659.776 338.541 675.579 374.058 690.514C451.103 722.908 540.888 750.719 615.489 715.276C691.026 679.382 722.108 594.334 755.558 520.352C794.555 434.147 846.616 351.039 921.008 288.882C946.914 267.243 975.815 248.377 1006.63 233.415C1064.26 205.389 1128.64 190.946 1192.59 197.447C1269.41 205.262 1339.71 241.761 1404.02 281.983C1534.29 363.335 1649.33 463.6 1745.07 580.194C1773.64 614.984 1800.49 651.214 1825.47 688.845" stroke="#7B61FF" stroke-opacity="0.5" stroke-width="0.552088" stroke-miterlimit="10"/>
<path d="M-695.51 923.876C-696.87 783.106 -638.2 651.847 -538.75 524.344C-529.926 513.03 -521.041 501.769 -511.726 490.866C-480.968 454.952 -445.666 420.888 -401.918 404.062C-275.148 355.158 -140.699 442.655 -30.1298 495.227C66.0563 540.961 162.04 591.077 262.864 637.417C297.445 653.315 332.235 668.849 367.47 683.488C443.888 715.236 532.59 742.663 606.612 709.043C681.57 674.994 713.601 593.52 747.927 522.681C787.953 440.144 840.599 360.535 914.844 300.977C940.709 280.247 969.462 262.168 1000.07 247.832C1057.3 220.977 1121.06 207.099 1184.42 213.284C1260.5 220.715 1330.27 255.599 1394.18 293.795C1523.67 371.035 1637.94 465.465 1733.96 576.445C1762.61 609.559 1789.62 644.127 1814.88 680.176" stroke="#7B61FF" stroke-opacity="0.5" stroke-width="0.552088" stroke-miterlimit="10"/>
<path d="M-699.785 916.505C-701.097 780.763 -639.668 657.668 -537.471 529.727C-528.607 518.635 -519.77 507.523 -510.489 496.795C-479.77 461.399 -444.785 427.78 -401.683 410.819C-276.663 361.437 -144.415 443.529 -33.9534 493.975C61.1692 537.414 156.366 586.028 257.102 631.426C291.441 646.906 325.948 662.117 360.9 676.46C436.692 707.569 524.304 734.612 597.761 702.81C672.14 670.611 705.12 592.705 740.32 525.009C781.376 446.141 834.608 370.025 908.712 313.071C934.53 293.243 963.134 275.959 993.536 262.248C1050.36 236.571 1113.51 223.258 1176.27 229.114C1251.63 236.154 1320.88 269.43 1384.36 305.6C1513.07 378.721 1626.58 467.322 1722.88 572.682C1751.62 604.12 1778.81 637.026 1804.34 671.486" stroke="#7B61FF" stroke-opacity="0.5" stroke-width="0.552088" stroke-miterlimit="10"/>
<path d="M-704.059 909.13C-705.324 778.416 -641.162 663.478 -536.2 535.106C-527.302 524.23 -518.505 513.279 -509.264 502.719C-478.593 467.834 -443.91 434.666 -401.454 417.577C-278.184 367.717 -148.157 444.412 -37.7833 492.724C56.2625 533.888 150.672 580.988 251.327 625.444C285.423 640.507 319.655 655.395 354.317 669.441C429.484 699.904 516.012 726.564 588.897 696.586C662.697 666.231 696.619 591.899 732.701 527.346C774.78 452.139 828.604 379.53 902.566 325.18C928.338 306.261 956.801 289.764 986.994 276.68C1043.4 252.174 1105.96 239.426 1168.11 244.966C1242.73 251.622 1311.45 283.289 1374.53 317.433C1502.46 386.442 1615.21 469.207 1711.78 568.954C1740.61 598.717 1767.96 629.96 1793.78 662.832" stroke="#7B61FF" stroke-opacity="0.5" stroke-width="0.552088" stroke-miterlimit="10"/>
<path d="M-708.34 901.753C-709.558 776.067 -642.704 669.266 -534.934 540.477C-526.01 529.816 -517.253 519.02 -508.039 508.635C-477.415 474.269 -443.042 441.545 -401.232 424.321C-279.706 373.983 -151.927 445.287 -41.6202 491.452C51.3285 530.354 144.977 575.927 245.551 619.433C279.406 634.079 313.362 648.644 347.735 662.388C422.275 692.211 507.713 718.48 580.032 690.326C653.254 661.815 688.124 591.057 725.082 529.648C768.191 458.109 822.601 388.999 896.421 337.248C922.145 319.237 950.46 303.528 980.452 291.077C1036.46 267.742 1098.4 255.559 1159.95 260.776C1233.84 267.049 1302.04 297.1 1364.7 329.219C1491.85 394.108 1603.84 471.045 1700.69 565.172C1729.6 593.258 1757.13 622.839 1783.21 654.122" stroke="#7B61FF" stroke-opacity="0.5" stroke-width="0.552088" stroke-miterlimit="10"/>
<path d="M-712.613 894.383C-713.778 773.724 -644.264 675.054 -533.655 545.861C-524.703 535.409 -515.98 524.775 -506.807 514.564C-476.223 480.71 -442.16 448.437 -400.996 431.085C-281.219 380.263 -155.695 446.202 -45.4491 490.207C46.389 526.861 139.277 570.899 239.784 613.456C273.396 627.692 307.076 641.92 341.16 655.374C415.074 684.551 499.428 710.437 571.175 684.107C643.818 657.447 679.638 590.249 717.464 531.99C761.596 464.119 816.598 398.51 890.27 349.363C915.947 332.254 944.121 317.339 973.904 305.514C1029.5 283.35 1090.84 271.74 1151.78 276.633C1224.95 282.515 1292.62 310.959 1354.88 341.051C1481.24 401.828 1592.47 472.929 1689.61 561.443C1718.6 587.853 1746.3 615.772 1772.66 645.467" stroke="#7B61FF" stroke-opacity="0.5" stroke-width="0.552088" stroke-miterlimit="10"/>
<path d="M-716.893 887.006C-718.011 771.375 -645.873 680.815 -532.389 551.239C-523.418 540.995 -514.728 530.529 -505.582 520.487C-475.045 487.151 -441.292 455.329 -400.774 437.843C-282.747 386.542 -159.504 447.117 -49.2852 488.948C41.4222 523.374 133.577 565.858 234.003 607.459C267.366 621.277 300.777 635.182 334.577 648.341C407.866 676.878 491.129 702.373 562.312 677.874C634.375 653.059 671.144 589.435 709.845 534.318C755.007 470.116 810.601 408.006 884.125 361.458C909.755 345.257 937.781 331.13 967.362 319.93C1022.55 298.944 1083.28 287.893 1143.63 292.469C1216.05 297.968 1283.21 324.796 1345.05 352.869C1470.64 409.527 1581.11 474.8 1678.52 557.694C1707.59 582.428 1735.46 608.677 1762.1 636.798" stroke="#7B61FF" stroke-opacity="0.5" stroke-width="0.552088" stroke-miterlimit="10"/>
<path d="M-721.168 879.628C-722.238 769.025 -647.502 686.556 -531.118 556.616C-522.126 546.58 -513.464 536.276 -504.357 526.409C-473.861 493.584 -440.417 462.213 -400.552 444.592C-284.269 392.814 -163.321 448.045 -53.1222 487.688C36.441 519.907 127.869 560.829 228.228 601.468C261.348 614.882 294.483 628.451 327.994 641.313C400.657 669.204 482.837 694.316 553.447 671.641C624.932 648.67 662.65 588.62 702.225 536.646C748.417 476.112 804.597 417.502 877.98 373.558C903.562 358.266 931.447 344.926 960.819 334.353C1015.6 314.538 1075.73 304.059 1135.46 308.306C1207.16 313.414 1273.79 338.633 1335.22 364.681C1460.02 417.226 1569.73 476.664 1667.42 553.944C1696.57 577.003 1724.62 601.589 1751.52 628.121" stroke="#7B61FF" stroke-opacity="0.5" stroke-width="0.552088" stroke-miterlimit="10"/>
<path d="M-725.447 872.26C-726.47 766.684 -649.17 692.291 -529.844 561.995C-520.839 552.161 -512.204 542.025 -503.124 532.326C-472.676 500.02 -439.541 469.093 -400.316 451.344C-285.782 399.088 -167.149 448.989 -56.9437 486.424C31.4618 516.456 122.169 555.796 222.467 595.466C255.339 608.469 288.205 621.708 321.427 634.274C393.463 661.526 474.553 686.247 544.598 665.396C615.504 644.269 654.171 587.793 694.621 538.963C741.836 482.096 798.608 426.987 871.849 385.641C897.385 371.251 925.128 358.698 954.292 348.757C1008.66 330.114 1068.19 320.2 1127.32 324.13C1198.29 328.855 1264.39 352.459 1325.41 376.481C1449.43 424.907 1558.38 478.509 1656.35 550.176C1685.58 571.559 1713.81 594.483 1740.98 619.426" stroke="#7B61FF" stroke-opacity="0.5" stroke-width="0.552088" stroke-miterlimit="10"/>
<path d="M-729.723 864.882C-730.699 764.334 -650.868 697.991 -528.574 567.372C-519.555 557.74 -510.94 547.779 -501.901 538.248C-471.493 506.453 -438.668 475.977 -400.095 458.094C-287.311 405.36 -171.008 449.957 -60.7817 485.165C26.446 513.029 116.453 550.767 216.685 589.475C249.307 602.074 281.903 614.977 314.836 627.246C386.247 653.852 466.253 678.197 535.718 659.163C606.046 639.886 645.655 586.971 686.987 541.297C735.232 488.092 792.589 436.489 865.683 397.741C891.171 384.26 918.767 372.495 947.728 363.187C1001.69 345.714 1060.61 336.365 1119.14 339.973C1189.37 344.314 1254.96 366.303 1315.56 388.305C1438.8 432.619 1546.99 480.386 1645.23 546.433C1674.56 566.14 1702.95 587.402 1730.39 610.757" stroke="#7B61FF" stroke-opacity="0.5" stroke-width="0.552088" stroke-miterlimit="10"/>
<path d="M-733.997 857.513C-734.919 761.993 -652.598 703.673 -527.302 572.757C-518.276 563.327 -509.695 553.514 -500.669 544.179C-470.369 512.841 -437.793 482.877 -399.866 464.859C-288.833 411.641 -174.871 450.954 -64.6183 483.92C21.4248 509.644 110.739 545.767 210.91 583.492C243.283 595.688 275.603 608.247 308.26 620.221C379.045 646.187 457.96 670.141 526.861 652.931C596.609 635.499 637.168 586.157 679.368 543.627C728.642 494.09 786.585 445.987 859.538 409.844C884.979 397.271 912.433 386.294 941.186 377.611C994.741 361.317 1053.05 352.533 1110.98 355.818C1180.48 359.768 1245.53 380.149 1305.72 400.125C1428.19 440.32 1535.61 482.258 1634.13 542.691C1663.54 560.723 1692.1 580.322 1719.83 602.095" stroke="#7B61FF" stroke-opacity="0.5" stroke-width="0.552088" stroke-miterlimit="10"/>
<path d="M-738.276 850.136C-739.151 759.644 -654.367 709.319 -526.029 578.134C-516.997 568.9 -508.435 559.269 -499.443 550.102C-469.19 519.276 -436.917 489.762 -399.636 471.61C-290.346 417.913 -178.754 451.97 -68.447 482.655C16.3914 506.259 105.032 540.746 205.136 577.495C237.254 589.287 269.311 601.51 301.678 613.187C371.837 638.507 449.669 662.078 517.998 646.692C587.168 631.104 628.675 585.336 671.75 545.949C722.047 500.08 780.583 455.477 853.394 421.932C878.795 410.261 906.094 400.078 934.651 392.021C987.796 376.898 1045.5 368.679 1102.83 371.641C1171.59 375.208 1236.13 393.973 1295.91 411.923C1417.59 448.006 1524.25 484.108 1623.06 538.922C1652.55 555.277 1681.28 573.214 1709.28 593.399" stroke="#7B61FF" stroke-opacity="0.5" stroke-width="0.552088" stroke-miterlimit="10"/>
<path d="M-742.55 842.759C-743.378 757.294 -656.163 714.939 -524.757 583.511C-515.717 574.472 -507.169 565.016 -498.211 556.024C-468.004 525.709 -436.041 496.647 -399.407 478.367C-291.866 424.192 -182.65 453.013 -72.2761 481.402C11.3508 502.913 99.3119 535.744 199.368 571.504C231.237 582.892 263.026 594.778 295.103 606.159C364.636 630.84 441.378 654.02 509.141 640.458C577.732 626.721 620.188 584.521 664.138 548.277C715.465 506.076 774.593 464.973 847.256 434.032C872.61 423.27 899.768 413.874 928.117 406.444C980.85 392.491 1037.95 384.839 1094.68 387.484C1162.71 390.668 1226.72 407.817 1286.09 423.748C1406.99 455.712 1512.9 485.986 1611.98 535.186C1641.55 549.865 1670.46 566.14 1698.73 584.736" stroke="#7B61FF" stroke-opacity="0.5" stroke-width="0.552088" stroke-miterlimit="10"/>
<path d="M-746.831 835.389C-747.611 754.953 -658.001 720.532 -523.491 588.89C-514.452 580.046 -505.918 570.764 -496.994 561.947C-466.834 532.144 -435.173 503.533 -399.185 485.118C-293.395 430.466 -186.575 454.083 -76.1131 480.137C6.28882 499.575 93.5907 530.738 193.593 565.508C225.213 576.499 256.732 588.042 288.52 599.127C357.427 623.162 433.085 645.958 500.276 634.22C568.288 622.327 611.693 583.694 656.519 550.6C708.869 512.067 768.589 474.464 841.104 446.121C866.41 436.268 893.42 427.659 921.567 420.861C973.897 408.08 1030.39 401 1086.51 403.322C1153.8 406.115 1217.29 421.656 1276.25 435.561C1396.37 463.412 1501.52 487.851 1600.87 531.431C1630.53 544.428 1659.61 559.04 1688.15 576.054" stroke="#7B61FF" stroke-opacity="0.5" stroke-width="0.552088" stroke-miterlimit="10"/>
<path d="M-751.104 828.012C-751.831 752.603 -659.865 726.085 -522.212 594.267C-513.173 585.611 -504.645 576.512 -495.754 567.87C-465.635 538.585 -434.25 510.492 -398.949 491.875C-294.794 436.954 -190.491 455.193 -79.9353 478.885C1.23495 496.283 87.8771 525.75 187.826 559.517C219.19 570.111 250.446 581.311 281.945 592.1C350.227 615.495 424.794 637.901 491.42 627.987C558.86 617.938 603.207 582.879 648.901 552.928C702.281 518.063 762.586 483.96 834.959 458.222C860.219 449.271 887.087 441.456 915.026 435.284C966.945 423.681 1022.84 417.159 1078.35 419.158C1144.92 421.568 1207.88 435.493 1266.43 447.373C1385.77 471.104 1490.15 489.714 1589.79 527.681C1619.53 539.002 1648.78 551.952 1677.6 567.385" stroke="#7B61FF" stroke-opacity="0.5" stroke-width="0.552088" stroke-miterlimit="10"/>
<path d="M-755.385 820.643C-756.065 750.262 -661.764 731.612 -520.948 599.652C-511.908 591.185 -503.387 582.274 -494.537 573.8C-464.465 545.027 -433.39 517.385 -398.734 498.64C-296.329 443.234 -194.436 456.339 -83.7859 477.641C-3.86086 493.027 82.1351 520.777 182.036 553.541C213.145 563.745 244.139 574.595 275.355 585.087C343.011 607.837 416.495 629.859 482.548 621.776C549.409 613.578 594.699 582.086 641.274 555.278C695.684 524.082 756.575 493.478 828.807 470.338C854.019 462.295 880.747 455.269 908.476 449.723C959.985 439.29 1015.27 433.34 1070.18 435.016C1136.02 437.036 1198.46 449.359 1256.59 459.213C1375.15 478.832 1478.78 491.607 1578.69 523.954C1608.52 533.599 1637.93 544.886 1667.03 558.731" stroke="#7B61FF" stroke-opacity="0.5" stroke-width="0.552088" stroke-miterlimit="10"/>
<path d="M-759.66 813.266C-760.293 747.905 -663.697 737.096 -519.67 605.029C-510.638 596.751 -502.123 588.021 -493.3 579.723C-463.268 551.468 -432.503 524.269 -398.493 505.39C-297.832 449.507 -198.368 457.516 -87.6033 476.375C-8.93014 489.775 76.4265 515.789 176.274 547.537C207.127 557.35 237.858 567.843 268.785 578.047C335.814 600.156 408.208 621.795 473.696 615.529C539.978 609.175 586.217 581.257 633.667 557.592C689.1 530.058 750.583 502.954 822.674 482.419C847.84 475.285 874.419 469.045 901.946 464.125C953.051 454.864 1007.73 449.48 1062.04 450.832C1127.14 452.468 1189.06 463.176 1246.78 471.004C1364.56 486.504 1467.43 493.444 1567.61 520.184C1597.52 528.153 1627.11 537.778 1656.48 550.034" stroke="#7B61FF" stroke-opacity="0.5" stroke-width="0.552088" stroke-miterlimit="10"/>
<path d="M-763.939 805.889C-764.525 745.557 -665.66 742.535 -518.402 610.4C-509.377 602.304 -500.863 593.769 -492.079 585.639C-462.095 557.895 -431.639 531.148 -398.276 512.141C-299.364 455.773 -202.33 458.727 -91.4445 475.116C-14.0232 486.558 70.6871 510.822 170.494 541.547C201.091 550.97 231.56 561.113 262.198 571.013C328.601 592.477 399.911 613.732 464.827 609.29C530.531 604.781 577.718 580.429 626.044 559.915C682.506 536.048 744.575 512.444 816.518 494.514C841.636 488.281 868.074 482.836 895.393 478.549C946.087 470.459 1000.16 465.64 1053.86 466.676C1118.23 467.928 1179.63 477.021 1236.93 482.823C1353.93 494.211 1456.04 495.315 1556.51 516.435C1586.5 522.728 1616.26 530.691 1645.91 541.359" stroke="#7B61FF" stroke-opacity="0.5" stroke-width="0.552088" stroke-miterlimit="10"/>
<path d="M-768.213 798.519C-768.745 743.214 -667.659 747.939 -517.131 615.785C-508.112 607.87 -499.598 599.524 -490.848 591.568C-460.904 564.343 -430.758 538.04 -398.047 518.899C-300.879 462.046 -206.288 459.993 -95.2746 473.858C-19.1119 483.368 64.9592 505.855 164.726 535.55C195.067 544.582 225.267 554.375 255.622 563.98C321.399 584.804 391.626 605.669 455.963 603.051C521.087 600.392 569.224 579.608 618.424 562.237C675.917 542.038 738.578 521.934 810.372 506.602C835.444 501.278 861.733 496.62 888.85 492.959C939.134 486.047 992.601 481.793 1045.71 482.5C1109.34 483.361 1170.21 490.846 1227.11 494.628C1343.32 501.897 1444.67 497.172 1545.41 512.673C1575.49 517.29 1605.42 523.59 1635.34 532.669" stroke="#7B61FF" stroke-opacity="0.5" stroke-width="0.552088" stroke-miterlimit="10"/>
<path d="M-772.489 791.142C-772.974 740.865 -669.687 753.296 -515.854 621.162C-506.849 613.422 -498.335 605.271 -489.619 597.491C-459.715 570.784 -429.925 544.864 -397.814 525.655C-302.51 468.129 -210.241 461.305 -99.0995 472.605C-24.1954 480.217 59.2295 500.9 158.956 529.566C189.041 538.215 218.979 547.651 249.044 556.959C314.196 577.137 383.332 597.619 447.103 596.824C511.649 596.01 560.735 578.8 610.803 564.572C669.319 548.041 732.572 531.437 804.226 518.71C829.25 514.294 855.398 510.424 882.306 507.389C932.186 501.648 985.041 497.959 1037.55 498.35C1100.46 498.827 1160.8 504.697 1217.29 506.453C1332.72 509.61 1433.31 499.05 1534.33 508.937C1564.49 511.878 1594.59 516.509 1624.79 524.013" stroke="#7B61FF" stroke-opacity="0.5" stroke-width="0.552088" stroke-miterlimit="10"/>
<path d="M-776.768 783.773C-777.205 738.524 -671.751 758.614 -514.586 626.547C-505.588 618.989 -497.074 611.033 -488.391 603.421C-458.528 577.233 -429.048 551.757 -397.59 532.414C-304.035 474.403 -214.203 462.665 -102.94 471.354C-29.295 477.102 53.4837 495.961 153.176 523.577C183.006 531.842 212.681 540.921 242.464 549.933C306.989 569.472 375.042 589.563 438.242 590.593C502.208 591.623 552.243 577.986 603.187 566.901C662.732 554.039 726.571 540.935 798.083 530.805C823.066 527.292 849.06 524.209 875.766 521.806C925.236 517.236 977.492 514.113 1029.38 514.188C1091.56 514.282 1151.38 518.535 1207.45 518.266C1322.11 517.304 1421.94 500.915 1523.24 505.182C1553.48 506.447 1583.76 509.416 1614.22 515.332" stroke="#7B61FF" stroke-opacity="0.5" stroke-width="0.552088" stroke-miterlimit="10"/>
<path d="M-781.043 776.396C-781.434 736.174 -673.84 763.871 -513.317 631.918C-504.331 624.535 -495.81 616.774 -487.168 609.337C-457.345 583.667 -428.182 558.636 -397.363 539.164C-305.558 480.676 -218.156 464.072 -106.772 470.089C-34.3784 473.999 47.7475 491.007 147.406 517.579C176.98 525.461 206.393 534.177 235.886 542.9C299.786 561.792 366.748 581.5 429.382 584.353C492.77 587.234 543.747 577.158 595.572 569.223C656.147 560.029 720.572 550.425 791.936 542.9C816.872 540.295 842.724 538 869.222 536.23C918.288 532.831 969.931 530.28 1021.22 530.024C1082.67 529.728 1141.96 532.373 1197.63 530.078C1311.5 525.003 1410.57 502.779 1512.14 501.433C1542.47 501.022 1572.92 502.328 1603.66 506.656" stroke="#7B61FF" stroke-opacity="0.5" stroke-width="0.552088" stroke-miterlimit="10"/>
<path d="M-785.324 769.02C-785.667 733.826 -675.973 769.081 -512.044 637.296C-503.073 630.081 -494.532 622.543 -485.937 615.261C-456.107 590.162 -427.3 565.522 -397.134 545.923C-307.073 486.956 -222.107 465.54 -110.602 468.838C-39.4601 470.938 42.013 486.088 141.632 511.59C170.943 519.095 200.1 527.447 229.304 535.874C292.577 554.127 358.456 573.444 420.518 578.122C483.327 582.846 535.253 576.345 587.954 571.553C649.551 566.02 714.568 559.922 785.791 554.995C810.68 553.299 836.391 551.792 862.68 550.647C911.335 548.426 962.373 546.434 1013.07 545.862C1073.78 545.182 1132.55 546.212 1187.8 541.898C1300.89 532.704 1399.2 504.651 1501.05 497.685C1531.47 495.598 1562.08 495.241 1593.1 497.981" stroke="#7B61FF" stroke-opacity="0.5" stroke-width="0.552088" stroke-miterlimit="10"/>
<path d="M-789.598 761.649C-789.887 731.482 -678.127 774.242 -510.772 642.68C-501.814 635.639 -493.273 628.303 -484.712 621.182C-454.929 596.602 -426.432 572.413 -396.912 552.672C-308.601 493.228 -226.044 467.059 -114.438 467.571C-44.5348 467.894 36.272 481.153 135.857 505.592C164.913 512.719 193.807 520.709 222.721 528.832C285.369 546.439 350.157 565.379 411.654 571.874C473.885 578.443 526.76 575.515 580.335 573.866C642.962 572.002 708.565 569.404 779.646 567.075C804.488 566.281 830.051 565.568 856.138 565.049C904.383 563.999 954.822 562.579 1004.91 561.677C1064.89 560.614 1123.14 560.028 1177.97 553.688C1290.28 540.382 1387.83 506.494 1489.97 493.914C1520.46 490.152 1551.25 488.133 1582.54 489.29" stroke="#7B61FF" stroke-opacity="0.5" stroke-width="0.552088" stroke-miterlimit="10"/>
<path d="M-793.879 754.272C-794.121 729.134 -680.315 779.344 -509.507 648.057C-500.562 641.185 -492.014 634.051 -483.487 627.105C-453.744 603.037 -425.557 579.298 -396.683 559.43C-310.122 499.507 -229.961 468.641 -118.268 466.319C-49.5895 464.892 30.5374 476.247 130.082 499.602C158.882 506.359 187.514 513.978 216.145 521.806C278.167 538.773 341.872 557.323 402.796 565.649C464.448 574.062 518.272 574.708 572.715 576.202C636.366 578.006 702.561 578.908 773.501 579.184C798.296 579.298 823.717 579.372 849.596 579.48C897.437 579.601 947.263 578.746 996.746 577.528C1055.99 576.074 1113.72 573.88 1168.14 565.514C1279.67 548.089 1376.46 508.365 1478.87 490.172C1509.44 484.734 1540.41 481.052 1571.97 480.621" stroke="#7B61FF" stroke-opacity="0.5" stroke-width="0.552088" stroke-miterlimit="10"/>
<path d="M-798.152 746.903C-798.347 726.792 -682.535 784.392 -508.228 653.442C-499.303 646.739 -490.742 639.806 -482.254 633.035C-452.559 609.485 -424.681 586.191 -396.454 566.187C-311.642 505.781 -233.857 470.284 -122.104 465.068C-54.6367 461.918 24.7902 471.347 124.308 493.619C152.845 500.006 181.221 507.255 209.564 514.786C270.959 531.108 333.574 549.274 393.933 559.423C455.006 569.687 509.779 573.894 565.097 578.538C629.778 584.01 696.565 588.412 767.356 591.286C792.105 592.309 817.378 593.17 843.061 593.904C890.492 595.196 939.712 594.907 988.596 593.365C1047.11 591.528 1104.31 587.718 1158.32 577.333C1269.07 555.795 1365.09 510.236 1467.78 486.424C1498.45 479.309 1529.58 473.965 1561.42 471.946" stroke="#7B61FF" stroke-opacity="0.5" stroke-width="0.552088" stroke-miterlimit="10"/>
<path d="M-802.433 739.526C-802.581 724.443 -684.783 789.373 -506.962 658.813C-498.051 652.271 -489.49 645.554 -481.03 638.951C-451.375 615.913 -423.807 593.069 -396.232 572.938C-313.164 512.054 -237.734 471.98 -125.94 463.802C-59.6715 458.956 19.0421 466.448 118.533 487.615C146.815 493.632 174.921 500.504 202.981 507.746C263.751 523.428 325.281 541.204 385.062 553.177C445.556 565.286 501.278 573.066 557.471 580.853C623.181 589.993 690.554 597.895 761.198 603.374C785.899 605.299 811.031 606.954 836.506 608.321C883.525 610.791 932.146 611.067 980.425 609.202C1038.21 606.975 1094.88 601.557 1148.49 589.145C1258.46 563.495 1353.72 512.101 1456.69 482.675C1487.44 473.885 1518.75 466.872 1550.85 463.271" stroke="#7B61FF" stroke-opacity="0.5" stroke-width="0.552088" stroke-miterlimit="10"/>
<path d="M-806.707 732.149C-806.801 722.093 -687.058 794.292 -505.691 664.19C-496.8 657.809 -488.225 651.301 -479.805 644.873C-450.197 622.353 -422.939 599.96 -396.003 579.688C-314.685 518.326 -241.578 473.736 -129.77 462.543C-64.6793 456.028 13.3075 461.567 112.758 481.624C140.777 487.278 168.628 493.773 196.398 500.718C256.542 515.755 316.982 533.146 376.198 546.944C436.113 560.896 492.784 572.251 549.852 583.181C616.585 595.989 684.55 607.391 755.053 615.468C779.707 618.301 804.69 620.744 829.963 622.737C876.579 626.378 924.588 627.219 972.26 625.038C1029.31 622.427 1085.47 615.394 1138.65 600.957C1247.84 571.187 1342.35 513.964 1445.59 478.918C1476.42 468.452 1507.9 459.777 1540.28 454.594" stroke="#7B61FF" stroke-opacity="0.5" stroke-width="0.552088" stroke-miterlimit="10"/>
<path d="M-810.98 724.779C-811.027 719.752 -689.366 799.152 -504.411 669.575C-495.534 663.356 -486.959 657.063 -478.566 650.804C-449.005 628.795 -422.05 606.853 -395.767 586.453C-316.198 524.613 -245.373 475.567 -133.593 461.292C-69.6525 453.127 7.55341 456.823 106.997 475.634C134.754 480.958 162.349 487.043 189.83 493.692C249.348 508.089 308.704 525.091 367.348 540.712C426.684 556.515 484.297 571.437 542.247 585.511C610.01 601.987 678.561 616.889 748.922 627.57C773.528 631.312 798.371 634.543 823.435 637.161C869.64 641.973 917.044 643.38 964.117 640.876C1020.43 637.881 1076.07 629.239 1128.84 612.776C1237.25 578.895 1330.99 515.836 1434.51 475.177C1465.43 463.035 1497.08 452.697 1529.73 445.926" stroke="#7B61FF" stroke-opacity="0.5" stroke-width="0.552088" stroke-miterlimit="10"/>
<path d="M-815.261 717.402C-815.261 717.402 -691.709 803.944 -503.146 674.953C-314.583 545.962 -249.674 406.787 101.215 469.644C343.69 513.083 572.433 619.628 816.88 651.578C917.454 664.722 1022.86 658.53 1119 624.588C1226.63 586.587 1319.61 517.7 1423.42 471.421C1454.42 457.603 1486.23 445.603 1519.16 437.243" stroke="#7B61FF" stroke-opacity="0.5" stroke-width="0.552088" stroke-miterlimit="10"/>
</g>
</svg>
