<svg width="1440" height="553" viewBox="0 0 1440 553" fill="none" xmlns="http://www.w3.org/2000/svg">
<g opacity="0.7">
<path d="M1605.07 469.585C1621.05 443.073 1619.35 408.756 1607.68 380.088C1596.01 351.42 1575.55 327.301 1554.73 304.389C1527.21 274.096 1497.57 244.304 1460.48 226.992C1408.78 202.865 1348.74 205.735 1292.29 214.049C1192.06 228.816 1094.68 259.07 999.98 295.055C898.463 333.628 794.949 379.729 686.523 373.563C589.222 368.031 522.845 320.469 452.59 259.174C387.066 202.005 332.866 128.256 251.555 90.8535C144.862 41.7748 13.5362 67.0164 -81.3996 136.129C-176.335 205.242 -238.141 312.297 -273.476 424.245" stroke="#7B61FF" stroke-opacity="0.5" stroke-width="0.864782" stroke-miterlimit="10"/>
<path d="M1614.3 457.847C1628.82 434.957 1624.57 404.309 1611.01 377.417C1597.48 350.602 1576.26 327.111 1554.45 305.551C1525.75 277.168 1495.27 248.53 1457.2 232.324C1403.09 209.286 1340.39 211.434 1281.8 218.673C1181.96 231.002 1085.15 259.45 991.233 293.205C891.329 329.112 789.847 373.48 683.284 366.643C586.078 360.408 518.418 314.427 447.449 256.343C381.051 202.251 325.87 133.449 245.272 99.271C139.872 54.5743 11.3008 81.0648 -83.3193 148.963C-178.333 217.009 -241.709 319.293 -279.171 428.367" stroke="#7B61FF" stroke-opacity="0.5" stroke-width="0.864782" stroke-miterlimit="10"/>
<path d="M1623.52 446.111C1636.58 426.842 1629.85 399.941 1614.34 374.751C1599.01 349.855 1576.98 326.926 1554.17 306.723C1524.3 280.258 1492.93 252.787 1453.91 237.662C1397.35 215.739 1332.08 217.17 1271.31 223.297C1171.91 233.319 1075.64 259.831 982.486 291.356C884.212 324.614 784.736 367.215 680.045 359.721C582.935 352.768 514.111 308.218 442.304 253.513C375.158 202.356 318.908 138.653 238.989 107.69C134.926 67.3752 9.06526 95.1146 -85.2392 161.803C-180.335 228.781 -245.28 326.29 -284.87 432.494" stroke="#7B61FF" stroke-opacity="0.5" stroke-width="0.864782" stroke-miterlimit="10"/>
<path d="M1632.75 434.374C1644.34 418.726 1635.2 395.645 1617.66 372.08C1600.6 349.151 1577.71 326.744 1553.89 307.889C1522.88 283.344 1490.57 257.065 1450.63 242.994C1391.59 222.204 1323.8 222.93 1260.82 227.917C1161.91 235.747 1066.16 260.211 973.743 289.502C877.125 320.123 779.629 360.931 676.811 352.798C579.791 345.123 509.74 302.094 437.167 250.678C369.2 202.524 311.99 143.847 232.711 116.103C130.022 80.162 6.83416 109.163 -87.1547 174.633C-182.328 240.54 -248.843 333.278 -290.56 436.608" stroke="#7B61FF" stroke-opacity="0.5" stroke-width="0.864782" stroke-miterlimit="10"/>
<path d="M1641.97 422.637C1652.11 410.61 1640.64 391.397 1620.99 369.409C1602.28 348.472 1578.47 326.562 1553.61 309.056C1521.48 286.429 1488.19 261.365 1447.34 248.331C1385.8 228.699 1315.54 228.729 1250.33 232.54C1151.94 238.292 1056.7 260.604 964.996 287.648C870.06 315.646 774.519 354.626 673.573 345.87C576.639 337.465 505.351 295.962 432.026 247.843C363.228 202.692 305.102 149.046 226.428 124.513C125.162 92.9361 4.59878 123.204 -89.0744 187.459C-184.326 252.307 -252.41 340.27 -296.255 440.731" stroke="#7B61FF" stroke-opacity="0.5" stroke-width="0.864782" stroke-miterlimit="10"/>
<path d="M1651.19 410.9C1659.87 402.499 1646.17 387.175 1624.32 366.743C1604.07 347.802 1579.24 326.381 1553.33 310.223C1520.11 289.506 1485.8 265.686 1444.06 253.664C1380 235.216 1307.3 234.559 1239.85 237.16C1141.99 240.937 1047.26 260.997 956.248 285.794C863.016 311.195 769.404 348.304 670.334 338.948C573.483 329.804 500.958 289.839 426.885 245.012C357.248 202.87 298.253 154.24 220.15 132.931C120.35 105.702 2.50599 137.46 -90.9899 200.298C-186.185 264.277 -255.977 347.262 -301.949 444.849" stroke="#7B61FF" stroke-opacity="0.5" stroke-width="0.864782" stroke-miterlimit="10"/>
<path d="M1660.41 399.163C1667.63 394.383 1651.8 382.953 1627.65 364.072C1605.95 347.106 1580.03 326.191 1553.05 311.39C1518.75 292.578 1483.4 270.029 1440.77 259.001C1374.17 241.767 1299.08 240.427 1229.36 241.788C1132.06 243.686 1037.85 261.412 947.501 283.948C855.998 306.77 764.293 341.973 667.095 332.033C570.326 322.137 496.552 283.724 421.744 242.186C351.26 203.051 291.447 159.43 213.867 141.354C115.581 118.45 0.292154 151.548 -92.9097 213.137C-188.161 276.079 -259.545 354.254 -307.644 448.972" stroke="#7B61FF" stroke-opacity="0.5" stroke-width="0.864782" stroke-miterlimit="10"/>
<path d="M1669.64 387.426C1675.39 386.268 1657.52 378.706 1630.98 361.407C1607.92 346.373 1580.84 326.001 1552.77 312.561C1517.42 295.643 1480.98 274.399 1437.49 264.338C1368.33 248.345 1290.88 246.335 1218.86 246.413C1122.15 246.517 1028.47 261.836 938.749 282.1C848.998 302.367 759.173 335.621 663.852 325.111C567.165 314.45 492.137 277.605 416.598 239.356C345.262 203.233 284.676 164.604 207.58 149.772C110.859 131.164 -1.93042 165.632 -94.834 225.977C-190.146 287.886 -263.121 361.256 -313.347 453.099" stroke="#7B61FF" stroke-opacity="0.5" stroke-width="0.864782" stroke-miterlimit="10"/>
<path d="M1678.86 375.689C1683.15 378.152 1663.32 374.405 1634.31 358.736C1609.95 345.581 1581.66 325.789 1552.49 313.724C1516.11 298.681 1478.56 278.776 1434.2 269.666C1362.47 254.939 1282.68 252.273 1208.38 251.028C1112.26 249.42 1019.11 262.268 930.011 280.237C842.037 297.981 754.067 329.238 660.627 318.179C564.018 306.744 487.727 271.481 411.47 236.512C339.27 203.406 277.965 169.742 201.315 158.173C106.202 143.822 -4.13549 179.694 -96.7364 238.794C-192.122 299.675 -266.679 368.243 -319.033 457.213" stroke="#7B61FF" stroke-opacity="0.5" stroke-width="0.864782" stroke-miterlimit="10"/>
<path d="M1688.08 363.952C1690.92 370.041 1669.17 370.037 1637.64 356.07C1612.04 344.73 1582.49 325.573 1552.2 314.895C1514.81 301.71 1476.13 283.184 1430.92 275.008C1356.61 261.573 1274.49 258.263 1197.88 255.657C1102.37 252.407 1009.77 262.731 921.259 278.392C835.088 293.638 748.943 322.851 657.384 311.261C560.853 299.04 483.295 265.38 406.325 233.686C333.255 203.596 271.276 174.872 195.028 166.596C101.571 156.454 -6.36234 193.774 -98.6649 251.638C-194.107 311.468 -270.251 375.236 -324.728 461.336" stroke="#7B61FF" stroke-opacity="0.5" stroke-width="0.864782" stroke-miterlimit="10"/>
<path d="M1697.31 352.215C1698.69 361.925 1675.06 365.59 1640.97 353.399C1614.17 343.809 1583.34 325.34 1551.93 316.061C1513.53 304.718 1473.71 287.6 1427.64 280.34C1350.74 268.223 1266.31 264.286 1187.4 260.276C1092.49 255.453 1000.47 263.206 912.516 276.537C828.17 289.325 743.832 316.442 654.15 304.337C557.692 291.321 478.863 259.278 401.184 230.851C327.236 203.79 264.626 179.957 188.745 175.009C96.9877 169.024 -8.58486 207.844 -100.585 264.468C-196.096 323.252 -273.818 382.223 -330.427 465.45" stroke="#7B61FF" stroke-opacity="0.5" stroke-width="0.864782" stroke-miterlimit="10"/>
<path d="M1706.53 340.478C1706.45 353.809 1680.96 361.065 1644.3 350.733C1616.3 342.837 1584.19 325.093 1551.65 317.228C1512.25 307.708 1471.27 292.034 1424.35 285.678C1344.87 274.904 1258.13 270.358 1176.91 264.904C1082.61 258.569 991.19 263.716 903.769 274.692C821.269 285.051 738.717 310.02 650.911 297.423C554.527 283.595 474.417 253.193 396.042 228.029C321.213 204.002 258.014 185.018 182.467 183.436C92.4475 181.552 -10.8075 221.923 -102.5 277.311C-198.08 335.05 -277.381 389.224 -336.117 469.581" stroke="#7B61FF" stroke-opacity="0.5" stroke-width="0.864782" stroke-miterlimit="10"/>
<path d="M1715.76 328.74C1714.21 345.693 1686.87 356.466 1647.63 348.061C1618.43 341.808 1585.04 324.829 1551.37 318.394C1510.98 310.676 1468.83 296.485 1421.07 291.009C1338.99 281.606 1249.95 276.468 1166.42 269.523C1072.73 261.732 981.932 264.247 895.026 272.838C814.389 280.806 733.606 303.572 647.677 290.495C551.366 275.837 469.972 247.103 390.905 225.189C315.185 204.204 251.433 190.013 176.189 191.841C87.9376 193.989 -13.0343 235.98 -104.416 290.136C-200.069 346.83 -280.948 396.211 -341.812 473.699" stroke="#7B61FF" stroke-opacity="0.5" stroke-width="0.864782" stroke-miterlimit="10"/>
<path d="M1724.98 317.004C1721.97 337.578 1692.77 351.8 1650.96 345.395C1620.55 340.737 1585.89 324.553 1551.09 319.566C1509.71 313.633 1466.4 300.949 1417.79 296.351C1333.11 288.339 1241.77 282.631 1155.93 274.152C1062.84 264.96 972.696 264.818 886.279 270.989C807.531 276.615 728.495 297.112 644.438 283.577C548.201 268.076 465.514 241.032 385.764 222.364C309.149 204.43 244.87 194.97 169.906 200.264C83.4494 206.37 -15.2655 250.047 -106.336 302.976C-202.067 358.615 -284.515 403.203 -347.506 477.818" stroke="#7B61FF" stroke-opacity="0.5" stroke-width="0.864782" stroke-miterlimit="10"/>
<path d="M1734.2 305.266C1729.74 329.466 1698.65 347.072 1654.29 342.724C1622.66 339.626 1586.75 324.259 1550.81 320.728C1508.44 316.567 1463.96 305.417 1414.5 301.679C1327.24 295.08 1233.59 288.823 1145.44 278.767C1052.95 268.218 963.482 265.414 877.536 269.13C800.691 272.453 723.388 290.625 641.204 276.645C545.044 260.288 461.061 234.96 380.627 219.52C303.113 204.645 238.323 199.849 163.632 208.669C78.9827 218.664 -17.4924 264.096 -108.247 315.802C-204.052 370.382 -288.078 410.191 -353.192 481.931" stroke="#7B61FF" stroke-opacity="0.5" stroke-width="0.864782" stroke-miterlimit="10"/>
<path d="M1743.42 293.53C1737.5 321.351 1704.51 342.293 1657.62 340.059C1624.75 338.49 1587.6 323.957 1550.53 321.9C1507.17 319.493 1461.53 309.908 1411.22 307.017C1321.35 301.857 1225.39 295.068 1134.95 283.391C1043.05 271.529 954.276 266.062 868.784 267.281C793.855 268.349 718.273 284.13 637.961 269.727C541.875 252.493 456.594 228.907 375.482 216.694C297.068 204.888 231.777 204.685 157.345 217.092C74.5076 230.895 -19.732 278.158 -110.171 328.641C-206.058 382.163 -291.65 417.188 -358.895 486.059" stroke="#7B61FF" stroke-opacity="0.5" stroke-width="0.864782" stroke-miterlimit="10"/>
<path d="M1752.65 281.793C1745.26 313.236 1710.35 337.475 1660.95 337.388C1626.81 337.328 1588.45 323.642 1550.25 323.067C1505.89 322.402 1459.09 314.403 1407.94 312.354C1315.48 308.651 1217.19 301.36 1124.46 288.02C1033.14 274.883 945.088 266.763 860.037 265.436C787.036 264.295 713.162 277.623 634.722 262.813C538.718 244.685 452.132 222.87 370.341 213.873C291.028 205.143 225.231 209.465 151.063 225.515C70.0325 243.055 -21.9674 292.221 -112.091 341.485C-208.056 393.939 -295.217 424.185 -364.585 490.182" stroke="#7B61FF" stroke-opacity="0.5" stroke-width="0.864782" stroke-miterlimit="10"/>
<path d="M1761.87 270.056C1753.02 305.12 1716.16 332.622 1664.28 334.722C1628.85 336.157 1589.29 323.313 1549.96 324.234C1504.61 325.297 1456.66 318.905 1404.65 317.687C1309.61 315.457 1208.98 307.691 1113.97 292.64C1023.23 278.262 935.908 267.506 851.294 263.578C780.226 260.281 708.064 271.084 631.488 255.881C535.566 236.841 447.674 216.828 365.204 211.029C284.987 205.39 218.675 214.149 144.788 233.92C65.5527 255.121 -24.1987 306.257 -114.002 354.307C-210.053 405.702 -298.78 431.168 -370.276 494.296" stroke="#7B61FF" stroke-opacity="0.5" stroke-width="0.864782" stroke-miterlimit="10"/>
<path d="M1771.09 258.318C1760.78 297.008 1721.94 327.742 1667.61 332.05C1630.88 334.963 1590.13 322.971 1549.68 325.4C1503.32 328.183 1454.22 323.42 1401.36 323.023C1303.74 322.288 1200.75 314.073 1103.47 297.263C1013.3 281.68 926.725 268.309 842.543 261.727C773.412 256.321 702.958 264.532 628.249 248.962C532.41 228.984 443.212 210.804 360.059 208.202C278.942 205.661 212.086 218.79 138.502 242.341C61.0301 267.138 -26.447 320.309 -115.926 367.145C-212.064 417.468 -302.351 438.168 -375.979 498.422" stroke="#7B61FF" stroke-opacity="0.5" stroke-width="0.864782" stroke-miterlimit="10"/>
<path d="M1780.32 246.581C1768.55 288.892 1727.7 322.846 1670.94 329.384C1632.88 333.771 1590.97 322.63 1549.41 326.571C1502.03 331.066 1451.8 327.945 1398.09 328.36C1297.88 329.138 1192.52 320.5 1092.99 301.887C1003.37 285.129 917.558 269.178 833.804 259.878C766.606 252.419 697.868 257.968 625.019 242.039C529.271 221.106 438.762 204.788 354.926 205.367C272.91 205.934 205.474 223.358 132.227 250.756C56.4898 279.087 -28.6826 334.35 -117.837 379.98C-214.062 429.227 -305.914 445.16 -381.665 502.545" stroke="#7B61FF" stroke-opacity="0.5" stroke-width="0.864782" stroke-miterlimit="10"/>
<path d="M1789.54 234.844C1776.31 280.777 1733.43 317.932 1674.27 326.714C1634.87 332.565 1591.8 322.271 1549.13 327.738C1500.72 333.935 1449.37 332.47 1394.8 333.697C1292.01 336 1184.26 326.969 1082.5 306.511C993.421 288.603 908.365 270.107 825.052 258.028C759.783 248.564 692.766 251.382 621.776 235.12C526.123 213.206 434.3 198.786 349.781 202.541C266.87 206.223 198.811 227.873 125.945 259.174C51.8979 290.984 -30.9266 348.39 -119.761 392.814C-216.076 440.986 -309.486 452.152 -387.368 506.663" stroke="#7B61FF" stroke-opacity="0.5" stroke-width="0.864782" stroke-miterlimit="10"/>
<path d="M1798.77 223.106C1784.07 272.66 1739.14 313.01 1677.6 324.047C1636.84 331.359 1592.62 321.916 1548.84 328.904C1499.41 336.799 1446.95 337.002 1391.51 339.029C1286.15 342.875 1175.99 333.48 1072.01 311.134C983.459 292.103 899.16 271.105 816.309 256.178C752.955 244.761 687.681 244.783 618.542 228.201C522.992 205.285 429.855 192.787 344.644 199.71C260.842 206.521 192.105 232.333 119.667 267.591C47.2628 302.837 -33.1706 362.426 -121.677 405.653C-218.083 452.739 -313.049 459.148 -393.058 510.789" stroke="#7B61FF" stroke-opacity="0.5" stroke-width="0.864782" stroke-miterlimit="10"/>
<path d="M1807.99 211.37C1791.84 264.545 1744.83 308.08 1680.93 321.377C1638.79 330.149 1593.44 321.55 1548.56 330.071C1498.1 339.656 1444.53 341.545 1388.23 344.362C1280.31 349.769 1167.7 340.041 1061.52 315.755C973.483 295.621 889.932 272.173 807.562 254.321C746.106 241.002 682.596 238.159 615.303 221.27C519.862 197.321 425.406 186.79 339.503 196.871C254.815 206.811 185.338 236.737 113.388 276.002C42.5755 314.644 -35.4149 376.449 -123.592 418.48C-220.093 464.477 -316.616 466.137 -398.749 514.904" stroke="#7B61FF" stroke-opacity="0.5" stroke-width="0.864782" stroke-miterlimit="10"/>
<path d="M1817.21 199.633C1799.6 256.434 1750.5 303.145 1684.26 318.711C1640.72 328.939 1594.25 321.182 1548.28 331.243C1496.77 342.517 1442.11 346.096 1384.94 349.704C1274.45 356.679 1159.39 346.649 1051.02 320.383C963.486 299.165 880.666 273.327 798.81 252.476C739.227 237.299 677.516 231.53 612.061 214.356C516.74 189.344 420.961 180.809 334.357 194.045C248.787 207.126 178.506 241.115 107.101 284.424C37.8236 326.442 -37.6675 390.481 -125.516 431.323C-222.113 476.232 -320.188 473.138 -404.452 519.036" stroke="#7B61FF" stroke-opacity="0.5" stroke-width="0.864782" stroke-miterlimit="10"/>
<path d="M1826.44 187.896C1807.36 248.319 1756.15 298.21 1687.59 316.04C1642.65 327.73 1595.05 320.807 1548 332.406C1495.44 345.366 1439.7 350.642 1381.66 355.033C1268.62 363.589 1151.07 353.291 1040.54 324.999C953.485 302.717 871.365 274.537 790.067 250.618C732.326 233.63 672.448 224.871 608.826 207.425C513.635 181.319 416.529 174.82 329.22 191.207C242.773 207.429 171.627 245.454 100.823 292.83C33.0197 338.201 -39.9161 404.492 -127.432 444.145C-224.123 487.956 -323.755 480.117 -410.142 523.141" stroke="#7B61FF" stroke-opacity="0.5" stroke-width="0.864782" stroke-miterlimit="10"/>
<path d="M1835.66 176.16C1815.12 240.204 1761.79 293.271 1690.92 313.374C1644.56 326.52 1595.85 320.436 1547.72 333.577C1494.1 348.218 1437.28 355.197 1378.38 360.374C1262.78 370.525 1142.72 359.99 1030.05 329.627C943.467 306.296 862.008 275.838 781.324 248.773C725.395 230.009 667.385 218.212 605.592 200.511C510.544 173.282 412.101 168.856 324.084 188.385C236.767 207.758 164.678 249.784 94.549 301.257C28.164 349.977 -42.1601 418.519 -129.343 456.993C-226.134 499.702 -327.313 487.122 -415.833 527.277" stroke="#7B61FF" stroke-opacity="0.5" stroke-width="0.864782" stroke-miterlimit="10"/>
<path d="M1844.88 164.422C1822.89 232.087 1767.42 288.331 1694.24 310.703C1646.47 325.309 1596.64 320.055 1547.44 334.743C1492.76 351.065 1434.87 359.756 1375.09 365.706C1256.95 377.465 1134.35 366.722 1019.55 334.251C933.426 309.886 852.587 277.212 772.573 246.923C718.407 226.417 662.326 211.53 602.349 193.592C507.457 165.204 407.674 162.888 318.934 185.554C230.752 208.081 157.661 254.096 88.2577 309.674C23.2348 361.744 -44.4214 432.538 -131.272 469.827C-228.162 511.43 -330.889 494.118 -421.536 531.399" stroke="#7B61FF" stroke-opacity="0.5" stroke-width="0.864782" stroke-miterlimit="10"/>
<path d="M1854.1 152.686C1830.65 223.972 1773.04 283.396 1697.57 308.037C1648.36 324.109 1597.43 319.675 1547.16 335.911C1491.41 353.914 1432.47 364.32 1371.81 371.04C1251.13 384.415 1125.95 373.494 1009.07 338.871C923.382 313.487 843.105 278.647 763.83 245.065C711.385 222.849 657.28 204.828 599.115 186.661C504.4 157.076 403.259 156.908 313.797 182.715C224.759 208.398 150.596 258.393 81.9795 318.085C18.2624 373.512 -46.6741 446.54 -133.187 482.654C-230.177 523.142 -334.456 501.102 -427.226 535.51" stroke="#7B61FF" stroke-opacity="0.5" stroke-width="0.864782" stroke-miterlimit="10"/>
<path d="M1863.33 140.947C1838.41 215.86 1778.65 278.456 1700.91 305.365C1650.25 322.898 1598.22 319.293 1546.88 337.076C1490.07 356.76 1430.07 368.882 1368.53 376.375C1245.31 391.375 1117.53 380.317 998.579 343.494C913.312 317.102 833.54 280.154 755.083 243.214C704.311 219.308 652.238 198.116 595.881 179.741C501.356 148.92 398.853 150.947 308.66 179.884C218.771 208.725 143.478 262.7 75.7054 326.497C13.2465 385.295 -48.9875 460.38 -135.098 495.488C-232.265 534.679 -338.015 508.093 -432.916 539.631" stroke="#7B61FF" stroke-opacity="0.5" stroke-width="0.864782" stroke-miterlimit="10"/>
<path d="M1872.55 129.211C1846.18 207.745 1784.25 273.521 1704.24 302.7C1652.13 321.701 1599 318.914 1546.6 338.248C1488.7 359.609 1427.67 373.455 1365.24 381.713C1239.5 398.346 1109.09 387.18 988.089 348.118C903.228 320.725 823.885 281.719 746.335 241.365C697.177 215.787 647.21 191.392 592.642 172.819C498.333 140.719 394.503 145.148 303.519 177.054C212.838 209.223 136.301 267.018 69.4227 334.916C8.17454 397.098 -51.2231 474.43 -137.018 508.323C-234.263 546.447 -341.587 515.086 -438.611 543.755" stroke="#7B61FF" stroke-opacity="0.5" stroke-width="0.864782" stroke-miterlimit="10"/>
<path d="M1881.78 117.474C1853.94 199.629 1789.84 268.59 1707.57 300.029C1654.01 320.495 1599.74 318.443 1546.32 339.41C1487.3 362.353 1425.29 378.135 1361.96 387.046C1233.73 405.55 1100.62 394.077 977.6 352.738C893.132 324.354 814.143 283.327 737.592 239.511C689.995 212.265 642.198 184.651 589.408 165.895C495.337 132.473 390.08 139.102 298.383 174.219C206.837 209.469 129.084 271.343 63.1445 343.33C3.06372 408.921 -53.4541 488.479 -138.938 521.157C-236.26 558.21 -345.154 522.082 -444.305 547.877" stroke="#7B61FF" stroke-opacity="0.5" stroke-width="0.864782" stroke-miterlimit="10"/>
<path d="M1891 105.737C1861.7 191.513 1795.42 263.66 1710.9 297.363C1655.88 319.298 1600.55 318.153 1546.04 340.582C1485.97 365.3 1422.88 382.603 1358.67 392.383C1227.89 412.309 1092.13 401.017 967.11 357.366C883.014 328.002 804.302 284.986 728.845 237.662C682.744 208.752 637.195 177.901 586.169 158.977C492.366 124.181 385.656 133.061 293.241 171.393C200.826 209.724 121.824 275.691 56.8661 351.753C-2.08605 420.775 -55.6853 502.532 -140.853 533.997C-238.258 569.981 -348.717 529.079 -450 552" stroke="#7B61FF" stroke-opacity="0.5" stroke-width="0.864782" stroke-miterlimit="10"/>
<path d="M1500.49 379.232C1490.33 270.129 1440.56 165.139 1362.51 88.1785C1340.31 66.2817 1314.83 46.0444 1284.55 38.551C1197.06 16.9048 1113.8 92.4394 1046.74 137.352C965.813 191.56 886.076 247.839 800.894 295.314C753.072 321.969 696.182 346.264 645.212 326.273C593.598 306.027 568.886 249.066 543.349 199.879C513.592 142.564 475.157 88.3513 423.002 50.2318C370.851 12.1167 303.537 -8.41452 240.369 5.15915C190.903 15.7856 147.923 45.8456 109.203 78.399C7.46123 163.933 -75.346 271.84 -131.63 392.218" stroke="#7B61FF" stroke-opacity="0.5" stroke-width="0.864782" stroke-miterlimit="10"/>
<path d="M1502.74 374.241C1492.91 268.655 1442.17 169.305 1362.68 92.3614C1340.49 70.8795 1315.3 50.8669 1285.44 43.2611C1199.01 21.1828 1116.84 93.0226 1049.96 136.38C978.646 182.606 908.219 231.227 833.372 274.372C824.17 279.696 814.917 284.934 805.599 290.068C758.14 316.225 701.933 340.158 651.478 321.251C600.356 302.116 575.295 247.476 549.459 200.341C519.278 145.45 480.735 93.5455 428.961 57.12C377.052 20.7464 310.511 1.27825 248.031 14.6056C205.57 23.6547 167.844 46.701 133.447 73.0489C128.12 77.124 122.905 81.3115 117.712 85.473C14.6736 168.043 -67.818 267.583 -122.286 384.081" stroke="#7B61FF" stroke-opacity="0.5" stroke-width="0.864782" stroke-miterlimit="10"/>
<path d="M1504.99 369.249C1495.48 267.185 1443.8 173.466 1362.86 96.5487C1340.68 75.473 1315.77 55.698 1286.33 47.9756C1200.95 25.4651 1119.88 93.6144 1053.17 135.416C982.568 179.65 912.763 227.013 837.864 269.446C828.732 274.661 819.548 279.795 810.303 284.834C763.207 310.495 707.68 334.064 657.738 316.242C607.105 298.222 581.694 245.898 555.56 200.821C524.956 148.359 486.308 98.7526 434.906 64.0254C383.239 29.389 317.477 10.9883 255.68 24.0736C213.599 32.9715 176.12 55.2788 141.887 80.6284C136.582 84.548 131.406 88.6058 126.209 92.5686C21.8167 172.183 -60.2987 263.352 -112.955 375.965" stroke="#7B61FF" stroke-opacity="0.5" stroke-width="0.864782" stroke-miterlimit="10"/>
<path d="M1507.24 364.263C1498.06 265.716 1445.45 177.624 1363.04 100.737C1340.88 80.0627 1316.25 60.5255 1287.23 52.6907C1202.89 29.7481 1122.94 94.2112 1056.39 134.448C986.507 176.695 917.203 222.606 842.361 264.519C833.285 269.606 824.183 274.658 815.012 279.597C768.279 304.761 713.435 327.967 664.008 311.234C613.868 294.325 588.193 244.269 561.67 201.301C530.745 151.198 491.981 103.826 440.864 70.9315C389.526 37.8984 324.451 20.699 263.346 33.5424C221.646 42.289 184.417 63.8616 150.34 88.2087C145.052 91.9727 139.92 95.9008 134.723 99.6648C28.9251 176.323 -52.7666 259.118 -103.603 367.85" stroke="#7B61FF" stroke-opacity="0.5" stroke-width="0.864782" stroke-miterlimit="10"/>
<path d="M1509.48 359.271C1500.63 264.247 1447.11 181.772 1363.21 104.92C1341.08 84.6433 1316.72 65.3481 1288.12 57.4009C1204.83 34.0219 1126.01 94.7988 1059.6 133.476C990.455 173.739 921.713 218.323 846.853 259.589C837.838 264.558 828.81 269.515 819.712 274.355C773.343 299.026 719.177 321.865 670.265 306.217C620.613 290.418 594.614 242.661 567.767 201.768C536.449 154.067 497.577 108.977 446.81 77.8198C395.74 46.4806 331.417 30.3919 270.995 42.9889C229.676 51.5843 192.693 72.4223 158.781 95.7668C153.514 99.3752 148.416 103.169 143.219 106.743C35.9601 180.446 -45.2516 254.87 -94.2717 359.717" stroke="#7B61FF" stroke-opacity="0.5" stroke-width="0.864782" stroke-miterlimit="10"/>
<path d="M1511.73 354.28C1503.21 262.774 1448.78 185.912 1363.39 109.103C1341.28 89.2243 1317.2 70.1753 1289.01 62.1115C1206.78 38.3003 1129.1 95.3953 1062.82 132.508C994.42 170.8 926.236 214.049 851.35 254.658C842.4 259.511 833.445 264.373 824.421 269.113C778.415 293.287 724.932 315.763 676.535 301.204C627.372 286.516 601.048 241.058 573.876 202.243C542.165 156.941 503.176 114.137 452.764 84.7213C401.958 55.0762 338.387 40.098 278.653 52.453C237.714 60.8928 200.978 80.9962 167.225 103.342C161.976 106.795 156.913 110.46 151.72 113.835C42.9433 184.573 -37.7323 250.63 -84.9364 351.592" stroke="#7B61FF" stroke-opacity="0.5" stroke-width="0.864782" stroke-miterlimit="10"/>
<path d="M1513.98 349.289C1505.79 261.3 1450.47 190.044 1363.56 113.29C1341.49 93.8006 1317.67 75.0022 1289.9 66.8261C1208.72 42.5827 1132.19 96.0002 1066.03 131.54C998.394 167.866 930.75 209.775 855.843 249.731C846.957 254.472 838.076 259.23 829.126 263.88C783.482 287.557 730.683 309.67 682.796 296.196C634.126 282.622 607.473 239.459 579.977 202.723C547.868 159.819 508.767 119.306 458.713 91.6269C408.167 63.6757 345.358 49.8039 286.306 61.9212C245.752 70.2098 209.263 89.5785 175.67 110.922C170.443 114.219 165.409 117.746 160.225 120.931C49.8789 188.695 -30.2043 246.4 -75.5967 343.477" stroke="#7B61FF" stroke-opacity="0.5" stroke-width="0.864782" stroke-miterlimit="10"/>
<path d="M1516.23 344.298C1508.36 259.831 1452.17 194.162 1363.74 117.473C1341.71 98.3725 1318.12 79.8854 1290.8 71.5363C1210.62 47.0294 1135.31 96.6051 1069.25 130.567C1002.39 164.94 935.282 205.501 860.344 244.8C851.523 249.424 842.715 254.087 833.838 258.638C788.558 281.822 736.438 303.568 689.069 291.178C640.888 278.715 613.907 237.847 586.096 203.189C553.588 162.684 514.37 124.457 464.676 98.5195C414.384 72.2667 352.341 59.5011 293.976 71.3721C253.803 79.5094 217.603 98.2126 184.127 118.48C178.921 121.631 173.914 125.014 168.739 128.009C56.7667 192.783 -22.6722 242.147 -66.2485 335.343" stroke="#7B61FF" stroke-opacity="0.5" stroke-width="0.864782" stroke-miterlimit="10"/>
<path d="M1518.48 339.306C1510.94 258.357 1453.88 198.271 1363.91 121.656C1341.93 102.936 1318.6 84.7165 1291.69 76.2422C1212.55 51.3204 1138.42 97.2141 1072.46 129.595C1006.39 162.027 939.805 201.236 864.837 239.865C856.081 244.377 847.347 248.94 838.539 253.391C793.622 276.079 742.185 297.461 695.326 286.161C647.638 274.808 620.32 236.235 592.192 203.66C559.283 165.549 519.953 129.621 470.621 105.412C420.585 80.8575 359.302 69.1982 301.626 80.8272C261.833 88.8132 225.884 106.786 192.568 126.047C187.384 129.046 182.398 132.287 177.24 135.092C63.5814 196.849 -15.1528 237.903 -56.9131 327.215" stroke="#7B61FF" stroke-opacity="0.5" stroke-width="0.864782" stroke-miterlimit="10"/>
<path d="M1520.73 334.315C1513.51 256.887 1455.61 202.368 1364.09 125.839C1342.15 107.499 1319.07 89.5479 1292.58 80.9526C1214.49 55.6159 1141.56 97.8322 1075.68 128.622C1010.41 159.123 944.336 196.966 869.333 234.934C860.642 239.334 851.982 243.798 843.247 248.149C798.698 270.34 747.935 291.36 701.596 281.144C654.396 270.906 626.745 234.623 598.302 204.131C564.986 168.414 525.539 134.781 476.58 112.309C426.79 89.4572 366.281 78.8999 309.288 90.2826C269.875 98.1131 234.177 115.364 201.021 133.614C195.854 136.457 190.895 139.556 185.749 142.175C70.3569 200.886 -7.62485 233.655 -47.5648 319.086" stroke="#7B61FF" stroke-opacity="0.5" stroke-width="0.864782" stroke-miterlimit="10"/>
<path d="M1522.97 329.328C1516.09 255.418 1457.35 206.461 1364.26 130.031C1342.38 112.067 1319.54 94.3838 1293.47 85.6718C1216.42 59.9159 1144.71 98.4719 1078.89 127.659C1014.44 156.245 948.863 192.714 873.826 230.008C865.204 234.295 856.608 238.66 847.952 242.916C803.766 264.614 753.686 285.271 707.857 276.14C661.15 267.013 633.157 233.02 604.403 204.611C570.677 171.288 531.117 139.958 482.525 119.215C432.982 98.0657 373.242 88.6103 316.936 99.751C277.904 107.43 242.457 123.951 209.457 141.194C204.312 143.882 199.369 146.838 194.241 149.275C77.0588 204.909 -0.110036 229.429 -38.2383 310.975" stroke="#7B61FF" stroke-opacity="0.5" stroke-width="0.864782" stroke-miterlimit="10"/>
<path d="M1525.22 324.337C1518.67 253.945 1459.11 210.536 1364.44 134.215C1342.61 116.618 1320.01 99.2152 1294.37 90.3822C1218.36 64.2072 1147.87 99.1115 1082.11 126.687C1018.49 153.367 953.399 188.457 878.323 225.077C869.766 229.252 861.243 233.517 852.661 237.674C808.838 258.875 759.437 279.169 714.127 271.122C667.909 263.106 639.574 231.408 610.513 205.082C576.371 174.149 536.695 145.126 488.483 126.112C439.182 106.665 380.221 98.3077 324.603 109.211C285.951 116.739 250.755 132.529 217.915 148.765C212.787 151.297 207.866 154.111 202.759 156.362C83.7351 208.872 7.42671 225.19 -28.8855 302.851" stroke="#7B61FF" stroke-opacity="0.5" stroke-width="0.864782" stroke-miterlimit="10"/>
<path d="M1527.47 319.346C1521.25 252.476 1460.87 214.594 1364.61 138.398C1342.85 121.169 1320.48 104.043 1295.26 95.0931C1220.3 68.4946 1151.04 99.7646 1085.32 125.719C1022.55 150.516 957.93 184.21 882.815 220.151C874.323 224.214 865.874 228.379 857.361 232.437C813.901 253.141 765.196 272.977 720.383 266.114C674.671 259.114 645.973 229.806 616.614 205.562C582.049 177.023 542.264 150.308 494.429 133.014C445.365 115.279 387.183 108.014 332.252 118.671C293.981 126.048 259.031 141.108 226.351 156.337C221.244 158.718 216.336 161.375 211.252 163.45C90.342 212.788 14.9373 220.947 -19.5588 294.727" stroke="#7B61FF" stroke-opacity="0.5" stroke-width="0.864782" stroke-miterlimit="10"/>
<path d="M1529.72 314.354C1523.82 251.002 1462.66 218.639 1364.79 142.581C1343.09 125.714 1320.95 108.869 1296.16 99.803C1222.24 72.781 1154.22 100.43 1088.54 124.746C1026.62 147.672 962.475 179.957 887.317 215.216C878.894 219.166 870.514 223.232 862.074 227.191C818.977 247.402 770.952 266.866 726.657 261.092C681.434 255.198 652.381 228.189 622.728 206.024C587.739 179.879 547.842 155.472 500.391 139.902C451.562 123.878 394.166 117.707 339.918 128.121C302.028 135.343 267.324 149.677 234.808 163.899C229.719 166.124 224.824 168.631 219.765 170.532C96.923 216.642 22.4695 216.702 -10.2106 286.598" stroke="#7B61FF" stroke-opacity="0.5" stroke-width="0.864782" stroke-miterlimit="10"/>
<path d="M1531.97 309.362C1526.39 249.532 1464.45 222.665 1364.96 146.768C1343.32 130.264 1321.42 113.7 1297.05 104.517C1224.18 77.0671 1157.42 101.112 1091.76 123.778C1030.7 144.849 967.015 175.717 891.809 210.289C883.451 214.13 875.145 218.093 866.778 221.957C824.045 241.671 776.702 260.768 732.918 256.083C688.183 251.299 658.776 226.585 628.829 206.503C593.407 182.752 553.403 160.661 506.337 146.807C457.736 132.498 401.132 127.416 347.567 137.589C310.057 144.659 275.6 158.263 243.244 171.478C238.176 173.548 233.295 175.903 228.262 177.627C103.448 220.444 29.9888 212.467 -0.879639 278.481" stroke="#7B61FF" stroke-opacity="0.5" stroke-width="0.864782" stroke-miterlimit="10"/>
<path d="M1534.22 304.372C1528.97 248.059 1466.26 226.681 1365.14 150.952C1343.58 134.802 1321.9 118.523 1297.94 109.228C1226.11 81.3503 1160.63 101.812 1094.97 122.81C1034.8 142.049 971.559 171.483 896.306 205.363C888.017 209.092 879.776 212.956 871.487 216.72C829.117 235.937 782.453 254.666 739.188 251.075C694.941 247.398 665.176 224.987 634.938 206.983C599.08 185.631 558.972 165.856 512.295 153.713C463.924 141.129 408.106 137.127 355.233 147.054C318.104 153.972 283.893 166.846 251.702 179.05C246.651 180.964 241.778 183.159 236.776 184.715C109.955 224.174 37.5211 208.228 8.47302 270.357" stroke="#7B61FF" stroke-opacity="0.5" stroke-width="0.864782" stroke-miterlimit="10"/>
<path d="M1536.47 299.38C1531.55 246.589 1468.08 230.673 1365.31 155.135C1343.82 139.335 1322.37 123.35 1298.83 113.938C1228.05 85.6327 1163.85 102.534 1098.19 121.838C1038.9 139.266 976.104 167.248 900.799 200.428C892.579 204.049 884.407 207.804 876.187 211.473C834.18 230.198 788.195 248.56 745.445 246.054C701.687 243.487 671.554 223.379 641.035 207.446C604.736 188.496 564.524 171.037 518.241 160.597C470.094 149.737 415.072 146.811 362.882 156.5C326.138 163.263 292.169 175.406 260.138 186.608C255.105 188.366 250.245 190.402 245.268 191.793C116.411 227.813 45.0318 203.976 17.7998 262.224" stroke="#7B61FF" stroke-opacity="0.5" stroke-width="0.864782" stroke-miterlimit="10"/>
<path d="M1538.71 294.389C1534.13 245.116 1469.92 234.654 1365.49 159.318C1344.07 143.869 1322.84 128.173 1299.73 118.645C1230 89.9027 1167.08 103.269 1101.4 120.862C1043.02 136.501 980.657 163.013 905.295 195.493C897.145 199.006 889.042 202.658 880.896 206.227C839.252 224.455 793.942 242.454 751.714 241.037C708.445 239.585 677.944 221.78 647.149 207.917C610.4 191.375 570.089 176.232 524.199 167.494C476.273 158.367 422.046 156.513 370.544 165.96C334.18 172.572 300.458 183.981 268.591 194.179C263.575 195.782 258.724 197.654 253.782 198.881C122.862 231.383 52.5683 199.737 27.1481 254.1" stroke="#7B61FF" stroke-opacity="0.5" stroke-width="0.864782" stroke-miterlimit="10"/>
<path d="M1540.96 289.403C1536.7 243.647 1471.77 238.613 1365.66 163.51C1344.32 148.407 1323.31 133.005 1300.62 123.364C1231.93 94.1901 1170.32 104.043 1104.61 119.903C1047.14 133.775 985.206 158.804 909.788 190.571C901.702 193.977 893.673 197.525 885.6 200.999C844.32 218.73 799.688 236.366 757.975 236.033C715.195 235.692 684.318 220.199 653.25 208.402C616.047 194.275 575.645 181.449 530.149 174.405C482.443 167.019 429.017 166.229 378.202 175.429C342.218 181.89 308.738 192.564 277.04 201.76C272.046 203.207 267.199 204.91 262.287 205.977C129.287 234.875 60.0919 195.502 36.4877 245.985" stroke="#7B61FF" stroke-opacity="0.5" stroke-width="0.864782" stroke-miterlimit="10"/>
<path d="M1543.21 284.411C1539.28 242.178 1473.63 242.554 1365.84 167.693C1344.58 152.927 1323.79 137.828 1301.51 128.074C1233.88 98.4593 1173.57 104.833 1107.83 118.93C1051.27 131.056 989.759 154.586 914.285 185.64C906.268 188.937 898.308 192.382 890.309 195.757C849.392 212.995 805.439 230.264 764.245 231.015C721.949 231.789 690.7 218.609 659.36 208.868C621.703 197.166 581.201 186.651 536.103 181.297C488.617 175.658 435.987 175.926 385.86 184.884C350.257 191.193 317.023 201.128 285.484 209.326C280.508 210.618 275.673 212.152 270.787 213.064C135.7 238.267 67.6112 191.262 45.823 237.861" stroke="#7B61FF" stroke-opacity="0.5" stroke-width="0.864782" stroke-miterlimit="10"/>
<path d="M1545.46 279.42C1541.85 240.704 1475.5 246.469 1366.01 171.876C1344.83 157.447 1324.26 142.65 1302.4 132.784C1235.82 102.733 1176.81 105.654 1111.04 117.957C1055.4 128.364 994.316 150.373 918.777 180.709C910.83 183.898 902.935 187.239 895.013 190.515C854.459 207.256 811.185 224.166 770.506 226.002C728.698 227.886 697.073 217.035 665.461 209.343C627.346 200.069 586.753 191.872 542.052 188.194C494.788 184.305 442.957 185.627 393.513 194.343C358.29 200.497 325.299 209.698 293.929 216.897C288.969 218.034 284.144 219.395 279.293 220.151C142.112 241.56 75.1347 187.019 55.1626 229.736" stroke="#7B61FF" stroke-opacity="0.5" stroke-width="0.864782" stroke-miterlimit="10"/>
<path d="M1547.71 274.429C1544.43 239.235 1477.39 250.367 1366.19 176.06C1345.1 161.967 1324.74 147.473 1303.29 137.495C1237.76 106.998 1180.07 106.506 1114.26 116.985C1059.54 125.697 998.873 146.168 923.274 175.774C915.396 178.86 907.57 182.092 899.717 185.269C859.527 201.513 816.932 218.064 776.771 220.981C735.452 223.984 703.451 215.458 671.566 209.81C632.997 202.978 592.309 197.088 548.006 195.087C500.958 192.961 449.927 195.325 401.171 203.795C366.328 209.797 333.583 218.258 302.374 224.46C297.436 225.441 292.614 226.625 287.793 227.23C148.524 244.749 82.6583 182.771 64.5022 221.603" stroke="#7B61FF" stroke-opacity="0.5" stroke-width="0.864782" stroke-miterlimit="10"/>
<path d="M1549.96 269.437C1547.01 237.761 1479.29 254.238 1366.36 180.247C1345.36 166.483 1325.21 152.295 1304.18 142.209C1239.7 111.268 1183.32 107.396 1117.47 116.021C1063.68 123.065 1003.43 141.98 927.767 170.852C919.958 173.829 912.201 176.958 904.422 180.035C864.594 195.786 822.678 211.975 783.037 215.976C742.206 220.095 709.829 213.902 677.676 210.289C638.648 205.907 597.87 202.329 553.96 201.992C507.132 201.633 456.902 205.03 408.833 213.262C374.371 219.114 341.868 226.832 310.827 232.039C305.906 232.865 301.094 233.871 296.307 234.329C154.963 247.856 90.1906 178.544 73.8506 213.491" stroke="#7B61FF" stroke-opacity="0.5" stroke-width="0.864782" stroke-miterlimit="10"/>
<path d="M1552.2 264.446C1549.58 236.292 1481.2 258.085 1366.54 184.43C1345.62 170.995 1325.69 157.114 1305.08 146.92C1241.65 115.529 1186.58 108.316 1120.69 115.049C1067.81 120.451 1008 137.789 932.264 165.921C924.524 168.795 916.836 171.816 909.131 174.797C869.666 190.052 828.429 205.886 789.302 210.964C748.96 216.201 716.206 212.347 683.781 210.765C644.3 208.838 603.426 207.567 559.914 208.894C513.311 210.311 463.876 214.736 416.49 222.727C382.409 228.427 350.148 235.401 319.271 239.615C314.368 240.285 309.569 241.11 304.808 241.421C161.41 250.855 97.7099 174.305 83.1859 205.372" stroke="#7B61FF" stroke-opacity="0.5" stroke-width="0.864782" stroke-miterlimit="10"/>
<path d="M1554.45 259.455C1552.16 234.818 1483.12 261.909 1366.71 188.613C1345.88 175.498 1326.16 161.933 1305.97 151.63C1243.6 119.79 1189.83 109.276 1123.9 114.077C1071.94 117.862 1012.56 133.601 936.756 160.986C929.086 163.756 921.467 166.669 913.835 169.551C874.738 184.309 834.18 199.784 795.568 205.942C755.714 212.299 722.593 210.791 689.887 211.232C649.96 211.768 608.986 212.809 565.864 215.782C519.486 218.984 470.842 224.429 424.144 232.173C390.443 237.718 358.429 243.954 327.716 247.169C322.83 247.679 318.039 248.323 313.309 248.491C167.878 253.733 105.229 170.048 92.5212 197.23" stroke="#7B61FF" stroke-opacity="0.5" stroke-width="0.864782" stroke-miterlimit="10"/>
<path d="M1556.7 254.468C1554.73 233.349 1485.06 265.712 1366.89 192.801C1346.15 180.005 1326.64 166.755 1306.87 156.341C1245.55 124.046 1193.07 110.274 1127.12 113.109C1076.07 115.304 1017.12 129.431 941.253 156.06C933.651 158.726 926.102 161.526 918.539 164.314C879.806 178.579 839.939 193.769 801.828 200.934C762.481 208.483 728.975 209.252 695.988 211.707C655.615 214.715 614.547 218.06 571.814 222.683C525.665 227.675 477.812 234.135 431.797 241.637C398.477 247.031 366.705 252.519 336.156 254.744C331.292 255.099 326.51 255.557 321.809 255.587C174.386 256.533 112.753 165.813 101.856 189.114" stroke="#7B61FF" stroke-opacity="0.5" stroke-width="0.864782" stroke-miterlimit="10"/>
<path d="M1558.95 249.476C1557.31 231.879 1487.01 269.484 1367.06 196.988C1346.42 184.507 1327.11 171.578 1307.76 161.055C1247.51 128.307 1196.3 111.315 1130.33 112.141C1080.18 112.767 1021.69 125.265 945.746 151.129C938.218 153.691 930.729 156.384 923.244 159.071C884.874 172.84 845.69 187.666 808.094 195.916C769.235 204.581 735.37 207.705 702.093 212.178C661.288 217.662 620.116 223.318 577.768 229.58C531.852 236.369 484.782 243.837 439.459 251.097C406.524 256.339 374.994 261.079 344.61 262.315C339.762 262.514 334.997 262.782 330.319 262.674C180.945 259.225 120.281 161.574 111.201 180.99" stroke="#7B61FF" stroke-opacity="0.5" stroke-width="0.864782" stroke-miterlimit="10"/>
<path d="M1561.2 244.485C1559.89 230.406 1488.97 273.227 1367.24 201.171C1346.69 189.007 1327.59 176.392 1308.65 165.766C1249.46 132.555 1199.52 112.392 1133.55 111.169C1084.29 110.257 1026.27 121.104 950.247 146.198C942.788 148.661 935.368 151.241 927.957 153.834C889.95 167.105 851.445 181.569 814.363 190.908C775.997 200.683 741.774 206.171 708.207 212.658C666.97 220.622 625.698 228.587 583.726 236.482C538.053 245.077 491.761 253.539 447.121 260.557C414.566 265.647 383.283 269.64 353.063 269.887C348.233 269.926 343.485 270.008 338.829 269.761C187.552 261.827 127.809 157.33 120.549 172.866" stroke="#7B61FF" stroke-opacity="0.5" stroke-width="0.864782" stroke-miterlimit="10"/>
<path d="M1563.45 239.494C1562.46 228.937 1490.94 276.944 1367.41 205.354C1346.96 193.496 1328.09 181.176 1309.54 170.476C1251.48 136.704 1202.72 113.511 1136.77 110.2C1088.37 107.767 1030.84 116.955 954.739 141.272C947.35 143.631 939.999 146.103 932.661 148.596C895.017 161.375 857.196 175.472 820.629 185.895C782.751 196.781 748.177 204.637 714.313 213.129C672.656 223.574 631.28 233.854 589.68 243.379C544.249 253.785 498.731 263.24 454.778 270.016C422.604 274.951 391.567 278.145 361.507 277.458C356.699 277.332 351.964 277.229 347.334 276.853C194.211 264.342 135.332 153.095 129.888 164.746" stroke="#7B61FF" stroke-opacity="0.5" stroke-width="0.864782" stroke-miterlimit="10"/>
<path d="M1565.69 234.502C1565.04 227.462 1492.92 280.629 1367.59 209.537C1347.22 197.986 1328.56 185.998 1310.44 175.186C1253.43 140.977 1205.9 114.673 1139.98 109.228C1092.44 105.299 1035.41 112.814 959.236 136.336C951.916 138.596 944.634 140.956 937.366 143.35C900.085 155.631 862.943 169.365 826.89 180.873C789.501 192.869 754.585 203.094 720.414 213.595C678.342 226.525 636.863 239.117 595.625 250.271C550.449 262.492 505.697 272.937 462.427 279.471C430.634 284.255 399.843 286.714 369.948 285.024C365.157 284.743 360.444 284.449 355.83 283.935C200.917 266.762 142.851 148.847 139.219 156.617" stroke="#7B61FF" stroke-opacity="0.5" stroke-width="0.864782" stroke-miterlimit="10"/>
<path d="M1567.95 229.511C1567.62 225.994 1494.92 284.286 1367.77 213.725C1347.5 202.476 1329.04 190.83 1311.34 179.901C1255.38 145.26 1209.06 115.883 1143.21 108.26C1096.49 102.854 1040.02 108.783 963.737 131.41C956.49 133.58 949.274 135.818 942.079 138.113C905.161 149.897 868.702 163.268 833.164 175.865C796.268 188.976 761.028 201.608 726.527 214.075C684.067 229.542 642.488 244.477 601.588 257.177C556.697 271.295 512.68 282.648 470.098 288.936C438.685 293.568 408.145 295.288 378.405 292.6C373.631 292.164 368.94 291.671 364.344 291.027C207.71 269.109 150.384 144.612 148.568 148.493" stroke="#7B61FF" stroke-opacity="0.5" stroke-width="0.864782" stroke-miterlimit="10"/>
<path d="M1570.2 224.52C1570.2 224.52 1496.92 287.907 1367.95 217.908C1238.97 147.909 1188.34 63.2782 968.23 126.479C748.121 189.681 555.807 321.256 386.85 300.167C217.893 279.078 157.907 140.368 157.907 140.368" stroke="#7B61FF" stroke-opacity="0.5" stroke-width="0.864782" stroke-miterlimit="10"/>
<path d="M1668.19 180.385C1655.01 144.988 1616.41 123.964 1578.71 121.224C1541.02 118.484 1503.93 130.727 1468.78 144.595C1396.07 173.267 1326.38 209.594 1252.2 234.213C1178.02 258.832 1097.11 271.321 1021.7 250.76C975.343 238.119 932.752 213.474 885.881 202.891C791.896 181.664 695.836 219.105 600.122 230.177C527.705 238.552 500.508 203.755 460.17 152.352C421.013 102.452 363.085 67.6297 300.627 56.4414C238.168 45.2532 171.748 57.807 117.686 91.013" stroke="#7B61FF" stroke-opacity="0.5" stroke-width="0.864782" stroke-miterlimit="10"/>
<path d="M1669.56 175.403C1654.9 142.21 1615.47 122.465 1577.17 120.94C1538.81 119.453 1500.97 132.404 1464.86 146.553C1391.8 175.243 1321.33 210.696 1246.86 233.526C1172.67 256.46 1092.39 266.68 1016.93 246.119C970.733 233.526 928.104 209.694 881.367 199.568C787.706 179.262 692.087 216.128 596.758 227.105C524.765 235.397 496.482 201.72 455.57 151.527C416.157 102.872 358.705 68.3519 296.795 58.5681C235.015 48.6893 169.746 62.2111 116.181 95.4042" stroke="#7B61FF" stroke-opacity="0.5" stroke-width="0.864782" stroke-miterlimit="10"/>
<path d="M1670.93 170.415C1654.8 139.431 1614.54 120.956 1575.64 120.645C1536.6 120.412 1498.03 134.068 1460.94 148.506C1387.53 177.213 1316.24 211.62 1241.54 232.83C1167.29 253.91 1087.67 262.026 1012.18 241.464C966.132 228.924 923.468 205.895 876.861 196.232C783.529 176.846 688.351 213.137 593.403 224.023C521.833 232.234 492.318 199.806 450.977 150.688C411.171 103.394 354.334 69.0602 292.969 60.6765C231.863 52.1071 167.744 66.5969 114.681 99.777" stroke="#7B61FF" stroke-opacity="0.5" stroke-width="0.864782" stroke-miterlimit="10"/>
<path d="M1672.3 165.429C1654.7 136.648 1613.61 119.453 1574.09 120.356C1534.39 121.376 1495.07 135.74 1457.02 150.459C1383.26 179.184 1311.18 212.636 1236.2 232.134C1161.93 251.451 1082.95 257.376 1007.41 236.81C961.523 224.317 918.825 202.1 872.347 192.9C779.34 174.434 684.603 210.147 590.039 220.946C518.893 229.075 488.228 197.831 446.373 149.858C406.247 103.87 349.928 69.9375 289.129 62.7985C228.685 55.6984 165.729 71.0006 113.168 104.168" stroke="#7B61FF" stroke-opacity="0.5" stroke-width="0.864782" stroke-miterlimit="10"/>
<path d="M1673.67 160.441C1654.6 133.869 1612.67 117.944 1572.55 120.066C1532.19 122.339 1492.11 137.408 1453.1 152.416C1378.99 181.158 1306.13 213.664 1230.88 231.443C1156.58 249.001 1078.24 252.726 1002.65 232.16C956.918 219.714 914.185 198.306 867.842 189.568C775.159 172.023 680.863 207.16 586.684 217.865C515.962 225.911 484.151 195.847 441.781 149.024C401.348 104.336 345.556 70.7019 285.303 64.9112C225.533 59.168 163.732 75.3907 111.667 108.545" stroke="#7B61FF" stroke-opacity="0.5" stroke-width="0.864782" stroke-miterlimit="10"/>
<path d="M1675.03 155.459C1654.49 131.091 1611.74 116.445 1571.01 119.781C1529.97 123.308 1489.16 139.085 1449.18 154.379C1374.71 183.138 1301.07 214.698 1225.54 230.756C1151.22 246.56 1073.51 248.085 997.875 227.515C952.305 215.121 909.533 194.521 863.323 186.241C770.969 169.616 677.11 204.175 583.315 214.793C513.017 222.757 480.065 193.877 437.176 148.199C396.436 104.812 341.172 71.4718 281.467 67.038C222.377 62.6517 161.721 79.7949 110.158 112.94" stroke="#7B61FF" stroke-opacity="0.5" stroke-width="0.864782" stroke-miterlimit="10"/>
<path d="M1676.4 150.472C1654.4 128.311 1610.8 114.846 1569.47 119.491C1527.76 124.18 1486.21 140.757 1445.27 156.332C1370.44 185.108 1296.03 215.726 1220.21 230.064C1145.88 244.122 1068.8 243.435 993.123 222.869C947.709 210.523 904.902 190.73 858.822 182.913C766.792 167.209 673.374 201.193 579.964 211.715C510.09 219.598 476.004 191.897 432.588 147.369C391.55 105.282 336.809 72.2319 277.645 69.1594C219.233 66.1257 159.728 84.198 108.662 117.326" stroke="#7B61FF" stroke-opacity="0.5" stroke-width="0.864782" stroke-miterlimit="10"/>
<path d="M1677.77 145.485C1654.29 125.528 1609.86 113.333 1567.93 119.202C1525.55 125.135 1483.25 142.425 1441.34 158.289C1366.17 187.083 1290.98 216.767 1214.88 229.373C1140.53 241.684 1064.07 238.789 988.353 218.219C943.099 205.92 900.254 186.94 854.308 179.581C762.602 164.797 669.625 198.206 576.6 208.638C507.15 216.438 471.94 189.918 427.983 146.535C386.655 105.745 332.429 72.988 273.805 71.2724C216.077 69.587 157.713 88.5884 107.149 121.708" stroke="#7B61FF" stroke-opacity="0.5" stroke-width="0.864782" stroke-miterlimit="10"/>
<path d="M1679.14 140.498C1654.19 122.75 1608.92 111.821 1566.39 118.913C1523.33 126.095 1480.27 144.007 1437.43 160.243C1361.84 188.894 1285.94 217.809 1209.55 228.677C1135.2 239.256 1059.36 234.14 983.593 213.565C938.494 201.314 895.614 183.142 849.802 176.25C758.421 162.382 665.885 195.217 573.24 205.558C504.214 213.28 467.88 187.935 423.387 145.701C381.773 106.203 328.062 73.7363 269.979 73.3905C212.933 73.0492 155.715 92.984 105.644 126.091" stroke="#7B61FF" stroke-opacity="0.5" stroke-width="0.864782" stroke-miterlimit="10"/>
<path d="M1680.51 135.515C1654.09 119.971 1607.99 110.312 1564.85 118.627C1521.12 127.058 1477.31 145.675 1433.51 162.204C1357.57 190.864 1280.9 218.867 1204.22 227.99C1129.86 236.836 1054.64 229.494 978.828 208.919C933.889 196.72 890.974 179.356 845.288 172.922C754.235 159.975 662.136 192.234 569.876 202.485C501.273 210.125 463.824 185.955 418.786 144.875C376.892 106.67 323.69 74.492 266.143 75.5119C209.785 76.5101 153.704 97.3871 104.135 130.476" stroke="#7B61FF" stroke-opacity="0.5" stroke-width="0.864782" stroke-miterlimit="10"/>
<path d="M1681.88 130.529C1653.98 117.193 1607.05 108.8 1563.31 118.338C1518.91 128.018 1474.36 147.339 1429.59 164.162C1353.3 192.831 1275.87 219.926 1198.89 227.299C1124.53 234.425 1049.93 224.849 974.067 204.274C929.284 192.122 886.335 175.567 840.782 169.595C750.054 157.568 658.395 189.248 566.521 199.413C498.342 206.971 459.785 183.972 414.19 144.05C372.023 107.128 319.323 75.2443 262.312 77.6384C206.642 79.972 151.702 101.791 102.63 134.872" stroke="#7B61FF" stroke-opacity="0.5" stroke-width="0.864782" stroke-miterlimit="10"/>
<path d="M1683.25 125.542C1653.89 114.41 1606.11 107.292 1561.77 118.049C1516.7 128.977 1471.4 149.007 1425.67 166.116C1349.02 194.797 1270.84 220.985 1193.56 226.608C1119.2 232.014 1045.21 220.199 969.302 199.625C924.679 187.52 881.691 171.773 836.273 166.263C745.868 155.157 654.651 186.263 563.161 196.332C495.406 203.808 455.747 181.976 409.593 143.217C367.159 107.578 314.96 75.9836 258.486 79.7519C203.503 83.4208 149.7 106.182 101.13 139.25" stroke="#7B61FF" stroke-opacity="0.5" stroke-width="0.864782" stroke-miterlimit="10"/>
<path d="M1684.62 120.554C1653.78 111.63 1605.18 105.788 1560.23 117.758C1514.49 129.94 1468.44 150.675 1421.75 168.073C1344.75 196.767 1265.81 222.056 1188.23 225.915C1113.87 229.614 1040.48 215.552 964.533 194.974C920.066 182.921 877.043 167.982 831.759 162.934C741.678 152.749 650.902 183.276 559.797 193.258C492.466 200.652 451.713 179.983 404.993 142.386C362.294 108.026 310.593 76.7216 254.65 81.8727C200.359 86.8683 147.694 110.584 99.621 143.639" stroke="#7B61FF" stroke-opacity="0.5" stroke-width="0.864782" stroke-miterlimit="10"/>
<path d="M1685.99 115.572C1653.68 108.857 1604.24 104.284 1558.69 117.473C1512.28 130.909 1465.49 152.348 1417.83 170.031C1340.48 198.743 1260.78 223.137 1182.9 225.224C1108.55 227.217 1035.77 210.903 959.777 190.324C915.469 178.319 872.408 164.188 827.253 159.603C737.502 150.338 647.162 180.29 556.442 190.178C489.534 197.489 447.687 177.978 400.401 141.553C357.447 108.468 306.235 77.4526 250.824 83.9866C197.225 90.3089 145.692 114.976 98.1206 148.017" stroke="#7B61FF" stroke-opacity="0.5" stroke-width="0.864782" stroke-miterlimit="10"/>
<path d="M1687.35 110.585C1653.58 106.073 1603.3 102.78 1557.15 117.183C1510.07 131.876 1462.53 154.015 1413.92 171.988C1336.21 200.717 1255.75 224.221 1177.57 224.533C1103.22 224.831 1031.05 206.257 955.011 185.674C910.86 173.717 867.764 160.398 822.743 156.271C733.316 147.926 643.417 177.303 553.082 187.1C486.598 194.33 443.67 175.972 395.8 140.722C352.595 108.908 301.872 78.1824 246.988 86.1079C194.081 93.7483 143.681 119.374 96.6113 152.403" stroke="#7B61FF" stroke-opacity="0.5" stroke-width="0.864782" stroke-miterlimit="10"/>
<path d="M1688.72 105.598C1653.48 103.295 1602.37 101.277 1555.61 116.89C1507.86 132.836 1459.58 155.68 1410 173.942C1331.94 202.693 1250.72 225.311 1172.24 223.842C1097.9 222.45 1026.33 201.612 950.251 181.029C906.259 169.124 863.128 156.609 818.238 152.944C729.135 145.52 639.677 174.318 549.727 184.024C483.666 191.172 439.658 173.964 391.208 139.893C347.761 109.341 297.513 78.9091 243.166 88.2305C190.946 97.1845 141.688 123.779 95.1154 156.795" stroke="#7B61FF" stroke-opacity="0.5" stroke-width="0.864782" stroke-miterlimit="10"/>
<path d="M1690.09 100.611C1653.37 100.511 1601.43 99.7724 1554.07 116.6C1505.64 133.804 1456.62 157.351 1406.08 175.895C1327.67 204.663 1245.69 226.404 1166.9 223.145C1092.56 220.069 1021.61 196.957 945.481 176.374C901.646 164.516 858.48 152.814 813.723 149.612C724.949 143.104 635.928 171.331 546.363 180.947C480.726 188.012 435.645 171.945 386.607 139.063C342.919 109.768 293.146 79.6302 239.331 90.3473C187.803 100.611 139.678 128.173 93.6019 161.176" stroke="#7B61FF" stroke-opacity="0.5" stroke-width="0.864782" stroke-miterlimit="10"/>
<path d="M1691.46 95.6285C1653.27 97.7373 1600.5 98.2775 1552.53 116.315C1503.44 134.776 1453.67 159.028 1402.16 177.857C1323.4 206.646 1240.67 227.515 1161.58 222.459C1087.24 217.705 1016.9 192.317 940.721 171.729C897.045 159.919 853.841 149.024 809.214 146.284C720.764 140.697 632.184 168.345 542.999 177.87C477.79 184.853 431.637 169.919 382.003 138.229C338.08 110.183 288.775 80.3392 235.491 92.4652C184.655 104.034 137.667 132.568 92.0886 165.562" stroke="#7B61FF" stroke-opacity="0.5" stroke-width="0.864782" stroke-miterlimit="10"/>
<path d="M1692.83 90.6411C1653.17 94.9539 1599.56 96.7732 1550.98 116.025C1501.23 135.744 1450.71 160.7 1398.24 179.814C1319.13 208.63 1235.63 228.629 1156.24 221.767C1081.91 215.341 1012.17 187.666 935.952 167.079C892.432 155.32 849.192 145.234 804.699 142.952C716.574 138.285 628.435 165.359 539.635 174.793C474.85 181.694 427.633 167.887 377.402 137.399C333.246 110.598 284.408 81.0475 231.66 94.5823C181.511 107.452 135.661 136.967 90.5839 169.944" stroke="#7B61FF" stroke-opacity="0.5" stroke-width="0.864782" stroke-miterlimit="10"/>
<path d="M1694.2 85.6548C1653.07 92.1759 1598.63 95.2743 1549.45 115.736C1499.02 136.717 1447.81 162.482 1394.33 181.768C1314.92 210.765 1230.61 229.745 1150.92 221.072C1076.58 212.982 1007.46 183.017 931.196 162.43C887.835 150.719 844.557 141.44 800.198 139.621C712.397 135.874 624.699 162.373 536.284 171.716C471.923 178.536 423.646 165.848 372.814 136.57C328.434 111.009 280.053 81.7525 227.838 96.7047C178.377 110.866 133.667 141.367 89.0879 174.331" stroke="#7B61FF" stroke-opacity="0.5" stroke-width="0.864782" stroke-miterlimit="10"/>
<path d="M1695.57 80.667C1652.97 89.392 1597.74 93.8647 1547.91 115.446C1496.86 137.779 1444.85 164.149 1390.41 183.725C1310.65 212.739 1225.58 230.872 1145.59 220.384C1071.25 210.635 1002.74 178.371 926.43 157.783C883.226 146.12 839.913 137.654 795.684 136.297C708.211 133.471 620.95 159.391 532.92 168.643C468.982 175.38 419.651 163.803 368.214 135.744C323.608 111.414 275.682 82.4561 224.003 98.8257C175.229 114.279 131.657 145.765 87.5789 178.721" stroke="#7B61FF" stroke-opacity="0.5" stroke-width="0.864782" stroke-miterlimit="10"/>
<path d="M1696.93 75.6846C1652.86 86.6178 1596.81 92.3654 1546.37 115.161C1494.64 138.747 1441.9 165.826 1386.49 185.683C1306.38 214.714 1220.54 232.004 1140.26 219.693C1065.92 208.293 998.021 173.725 921.67 153.134C878.625 141.518 835.274 133.86 791.179 132.965C704.03 131.06 617.21 156.405 529.565 165.566C466.051 172.221 415.668 161.742 363.617 134.914C318.791 111.803 271.31 83.152 220.176 100.948C172.085 117.685 129.659 150.165 86.0784 183.107" stroke="#7B61FF" stroke-opacity="0.5" stroke-width="0.864782" stroke-miterlimit="10"/>
<path d="M1698.3 70.6978C1652.77 83.835 1595.88 90.8573 1544.83 114.872C1492.44 139.716 1438.94 167.494 1382.57 187.64C1302.11 216.689 1215.5 233.141 1134.93 219.001C1060.58 205.955 993.304 169.08 916.905 148.484C874.016 136.92 830.634 130.07 786.669 129.634C699.845 128.648 613.466 153.415 526.205 162.485C463.115 169.058 411.682 159.672 359.021 134.076C313.974 112.184 266.935 83.8306 216.345 103.061C168.929 121.082 127.648 154.56 84.5693 187.489" stroke="#7B61FF" stroke-opacity="0.5" stroke-width="0.864782" stroke-miterlimit="10"/>
<path d="M1699.67 65.7109C1652.66 81.0564 1594.94 89.3536 1543.29 114.582C1490.23 140.679 1435.99 169.166 1378.65 189.598C1297.84 218.664 1210.46 234.286 1129.6 218.31C1055.24 203.621 988.591 164.43 912.144 143.834C869.415 132.317 825.995 126.276 782.163 126.302C695.663 126.237 609.726 150.429 522.85 159.409C460.183 165.899 407.704 157.594 354.429 133.247C309.166 112.56 262.563 84.5179 212.518 105.179C165.785 124.474 125.651 158.955 83.0734 191.871" stroke="#7B61FF" stroke-opacity="0.5" stroke-width="0.864782" stroke-miterlimit="10"/>
<path d="M1701.04 60.7236C1652.56 78.273 1594.01 87.8451 1541.75 114.292C1488.02 141.643 1433.04 170.834 1374.73 191.551C1293.57 220.63 1205.42 235.436 1124.27 217.614C1049.9 201.287 983.869 159.78 907.379 139.184C864.806 127.715 821.351 122.481 777.649 122.97C691.478 123.821 605.977 147.442 519.486 156.327C457.243 162.736 403.717 155.502 349.824 132.412C304.345 112.922 258.174 85.1917 208.679 107.296C162.616 127.862 123.64 163.349 81.5557 196.257" stroke="#7B61FF" stroke-opacity="0.5" stroke-width="0.864782" stroke-miterlimit="10"/>
<path d="M1702.41 55.7412C1652.45 75.4989 1593.07 86.3457 1540.21 114.007C1485.81 142.611 1430.08 172.511 1370.81 193.513C1289.29 222.61 1200.37 236.594 1118.94 216.931C1044.56 198.971 979.152 155.139 902.614 134.543C860.201 123.126 816.707 118.7 773.139 119.651C687.292 121.423 602.232 144.465 516.126 153.263C454.307 159.59 399.739 153.419 345.228 131.596C299.533 113.299 253.79 85.8833 204.852 109.427C159.459 131.263 121.638 167.762 80.0552 200.652" stroke="#7B61FF" stroke-opacity="0.5" stroke-width="0.864782" stroke-miterlimit="10"/>
<path d="M1703.78 50.7544C1652.35 72.716 1592.14 84.8377 1538.67 113.718C1483.61 143.575 1427.13 174.179 1366.89 195.467C1285.03 224.58 1195.32 237.752 1113.6 216.236C1039.21 196.646 974.43 150.489 897.849 129.889C855.592 118.519 812.063 114.902 768.629 116.315C683.107 119.007 598.488 141.475 512.762 150.182C451.367 156.427 395.753 151.306 340.627 130.757C294.716 113.644 249.397 86.549 201.017 111.54C156.29 134.642 119.632 172.153 78.5461 205.03" stroke="#7B61FF" stroke-opacity="0.5" stroke-width="0.864782" stroke-miterlimit="10"/>
<path d="M1705.15 45.7681C1652.25 69.9379 1591.21 83.3344 1537.13 113.425C1481.4 144.535 1424.17 175.848 1362.97 197.421C1280.75 226.552 1190.26 238.911 1108.27 215.54C1033.85 194.326 969.708 145.836 893.08 125.235C850.983 113.913 807.415 111.108 764.115 112.98C678.921 116.592 594.739 138.48 509.398 147.097C448.426 153.264 391.77 149.18 336.026 129.92C289.895 113.982 244.999 87.2108 197.181 113.649C153.116 138.018 117.621 176.539 77.0371 209.408" stroke="#7B61FF" stroke-opacity="0.5" stroke-width="0.864782" stroke-miterlimit="10"/>
<path d="M1706.52 40.7803C1652.15 67.1541 1590.28 81.8254 1535.59 113.134C1479.19 145.498 1421.22 177.52 1359.06 199.377C1276.48 228.526 1185.2 240.081 1102.94 214.848C1028.5 192.014 964.995 141.189 888.319 120.589C846.377 109.318 802.78 107.318 759.605 109.651C674.736 114.184 590.999 135.498 506.038 144.024C445.49 150.109 387.788 147.058 331.426 129.093C285.078 114.323 240.598 87.8797 193.35 115.775C149.942 141.405 115.619 180.946 75.5322 213.798" stroke="#7B61FF" stroke-opacity="0.5" stroke-width="0.864782" stroke-miterlimit="10"/>
<path d="M1707.89 35.7979C1652.05 64.3799 1589.35 80.3261 1534.05 112.849C1476.99 146.47 1418.27 179.192 1355.14 201.335C1272.21 230.501 1180.08 241.417 1097.61 214.161C1023.09 189.853 960.274 136.548 883.559 115.943C841.777 104.721 798.14 103.532 755.1 106.328C670.555 111.782 587.259 132.521 502.683 140.952C442.559 146.954 383.81 144.919 326.834 128.268C280.265 114.656 236.196 88.5498 189.524 117.901C146.769 144.789 113.618 185.35 74.0321 218.193" stroke="#7B61FF" stroke-opacity="0.5" stroke-width="0.864782" stroke-miterlimit="10"/>
<path d="M1709.25 30.811C1651.95 61.6014 1588.41 78.818 1532.5 112.56C1474.77 147.434 1415.31 180.865 1351.22 203.293C1267.94 232.476 1175.03 242.514 1092.28 213.47C1017.74 187.476 955.556 131.898 878.794 111.294C837.168 100.118 793.496 99.7381 750.59 102.996C666.369 109.371 583.514 129.53 499.323 137.875C439.623 143.795 379.823 142.771 322.238 127.439C275.444 114.98 231.747 89.1549 185.693 120.019C143.548 148.112 111.615 189.745 72.5273 222.575" stroke="#7B61FF" stroke-opacity="0.5" stroke-width="0.864782" stroke-miterlimit="10"/>
<path d="M1710.62 25.8242C1651.85 58.8185 1587.48 77.3143 1530.97 112.27C1472.57 148.398 1412.36 182.533 1347.3 205.251C1263.67 234.451 1170 243.617 1086.95 212.779C1012.4 185.096 950.839 127.253 874.033 106.644C832.567 95.5205 788.857 95.9484 746.085 99.6648C662.192 106.959 579.774 126.544 495.968 134.794C436.692 140.632 375.841 140.606 317.641 126.6C270.623 115.287 227.371 89.8638 181.862 122.132C140.396 151.535 109.609 194.14 71.0227 226.953" stroke="#7B61FF" stroke-opacity="0.5" stroke-width="0.864782" stroke-miterlimit="10"/>
</g>
</svg>
